<?xml version="1.0" encoding="UTF-8"?>
<svg version="1.1" xmlns="http://www.w3.org/2000/svg" width="552" height="576">
<path d="M0 0 C0.6276123 0.27005859 1.25522461 0.54011719 1.90185547 0.81835938 C21.89679218 9.5255993 39.79048037 21.15143897 55.78125 35.9921875 C58.03737489 38.08846586 58.03737489 38.08846586 60.78125 40.1328125 C61.5134375 40.74898437 62.245625 41.36515625 63 42 C63 42.66 63 43.32 63 44 C63.66 44 64.32 44 65 44 C67.58245635 46.42008634 69.74581595 49.27766953 72 52 C72.43135254 52.50982422 72.86270508 53.01964844 73.30712891 53.54492188 C89.21360171 72.38635251 101.85954638 93.68380005 110 117 C110.35723145 117.98057373 110.35723145 117.98057373 110.72167969 118.98095703 C115.02473048 130.80207564 117.90543915 142.60281799 120 155 C120.226875 156.27746094 120.45375 157.55492187 120.6875 158.87109375 C127.86685076 205.98558312 115.76135237 259.17528277 88 298 C87.53303711 298.65339355 87.06607422 299.30678711 86.58496094 299.97998047 C81.09822002 307.58814206 75.44192814 314.93615891 69.0390625 321.8046875 C66.39426282 324.65215382 63.90232976 327.62038095 61.41015625 330.6015625 C60 332 60 332 58 332 C58 332.66 58 333.32 58 334 C54.55621443 337.25408552 50.73517356 340.08847483 47 343 C46.38431152 343.48388184 45.76862305 343.96776367 45.13427734 344.46630859 C36.15304945 351.49401177 27.12804948 357.71033008 17 363 C16.36594238 363.33483398 15.73188477 363.66966797 15.07861328 364.01464844 C-16.57284346 380.63224836 -50.38802102 388.00079298 -86.0625 386.875 C-86.80628906 386.8656543 -87.55007813 386.85630859 -88.31640625 386.84667969 C-92.07470945 386.65911512 -93.72751964 386.25715334 -96.5 383.640625 C-98 381 -98 381 -97.9375 377.875 C-96.96415814 374.89008495 -96.43581488 373.87674191 -94 372 C-91.76123047 371.61523438 -91.76123047 371.61523438 -89.1171875 371.59375 C-87.63279175 371.56438354 -87.63279175 371.56438354 -86.1184082 371.53442383 C-85.0480835 371.52306396 -83.97775879 371.5117041 -82.875 371.5 C-38.72660793 370.30714594 3.06512708 358.07240998 37 329 C38.91565927 327.47789794 40.83232846 325.95706605 42.75 324.4375 C46.66236814 321.23445639 50.06027142 317.95645043 53.27734375 314.0625 C55.16196437 311.80608348 57.16920753 309.69994033 59.1875 307.5625 C91.0730381 271.89393196 106.24326442 222.40899009 104 175 C102.92763139 157.67082119 99.15425949 140.92932365 93.93066406 124.40869141 C93.68026367 123.61382324 93.42986328 122.81895508 93.171875 122 C92.9459668 121.29875 92.72005859 120.5975 92.48730469 119.875 C92 118 92 118 92 115 C91.34 115 90.68 115 90 115 C89.53851563 114.04222656 89.07703125 113.08445313 88.6015625 112.09765625 C75.80098717 85.82911376 60.22412809 62.14910155 37 44 C36.14019531 43.26265625 35.28039062 42.5253125 34.39453125 41.765625 C-0.89004608 11.53659272 -49.29681144 0.28241496 -94.76953125 3.28125 C-125.50094812 5.82794128 -157.16746573 17.72437084 -182 36 C-183.0415625 36.75796875 -184.083125 37.5159375 -185.15625 38.296875 C-196.0643607 46.38142247 -206.45769694 55.41052192 -215 66 C-215.82886719 66.99128906 -216.65773437 67.98257813 -217.51171875 69.00390625 C-228.49638309 82.35117763 -236.72333064 97.36835294 -244 113 C-244.30534668 113.64839844 -244.61069336 114.29679688 -244.92529297 114.96484375 C-249.01184218 123.77939731 -251.9244467 132.70865626 -254.3125 142.125 C-254.55500488 143.07761719 -254.79750977 144.03023437 -255.04736328 145.01171875 C-258.20822139 158.14659201 -259.38498112 171.1980713 -259.3125 184.6875 C-259.31100952 185.38044159 -259.30951904 186.07338318 -259.3079834 186.787323 C-259.26336224 198.38899168 -258.48884483 209.64481148 -256 221 C-255.85546387 221.66692871 -255.71092773 222.33385742 -255.56201172 223.02099609 C-251.19203712 242.4414923 -243.06920938 262.86751476 -231.875 279.375 C-229.74905494 282.5513529 -228.99881056 284.00670414 -228.3125 287.875 C-229.15362624 291.69830107 -230.04064717 293.42005138 -233 296 C-236.4375 297.125 -236.4375 297.125 -240 297 C-265.09278406 275.20785156 -275.29911539 230.39322536 -277.72265625 198.7578125 C-280.79866889 150.34746654 -266.07068781 97.95839459 -234.125 60.6875 C-232.43601037 58.77285589 -230.72122473 56.8860823 -229 55 C-227.87324185 53.6681521 -226.74803919 52.33498531 -225.625 51 C-216.32659089 40.50892083 -206.25806284 31.33631074 -195 23 C-194.17242187 22.37738281 -193.34484375 21.75476563 -192.4921875 21.11328125 C-137.50814277 -18.8666428 -62.42440561 -27.00253754 0 0 Z " fill="#E9E8EA" transform="translate(381,106)"/>
<path d="M0 0 C30.88343789 27.27247987 53.22065337 69.45367876 56.19140625 110.8359375 C57.93227868 158.9641574 46.6141198 204.16864653 15.19140625 241.8359375 C13.15148209 244.00758451 11.06730657 246.09400862 8.91015625 248.1484375 C6.99511265 249.95703396 6.99511265 249.95703396 4.87890625 252.7734375 C1.03100861 257.51917792 -4.0238646 261.09379525 -8.80859375 264.8359375 C-9.75089844 265.58230469 -10.69320312 266.32867187 -11.6640625 267.09765625 C-47.71431856 294.9745749 -92.70615055 307.28401016 -137.890625 301.5859375 C-170.89711412 296.86788485 -202.46386398 282.66530272 -226.80859375 259.71875 C-228.48655943 258.13910263 -230.1869807 256.69622953 -231.99609375 255.2734375 C-235.04153051 252.63405897 -237.60787451 249.8169358 -240.19921875 246.73828125 C-241.46759845 245.23900719 -242.81310935 243.80498728 -244.18359375 242.3984375 C-246.52582639 238.7049168 -247.28272702 235.19796362 -246.80859375 230.8359375 C-244.68616619 227.92517971 -243.00752086 226.43540105 -239.80859375 224.8359375 C-236.25198739 224.8359375 -233.77977226 226.89494301 -231.28466797 229.3125 C-229.57869662 231.13109556 -227.9092367 232.97810994 -226.24609375 234.8359375 C-200.47114529 262.91384874 -166.257041 282.28177912 -127.609375 284.74609375 C-126.68511719 284.77574219 -125.76085937 284.80539062 -124.80859375 284.8359375 C-123.56464844 284.87589844 -122.32070313 284.91585938 -121.0390625 284.95703125 C-81.19663682 285.78678879 -44.94922805 271.77386364 -14.80859375 245.8359375 C-13.85210937 245.03800781 -12.895625 244.24007813 -11.91015625 243.41796875 C13.71673376 221.18781875 27.84843441 189.32947471 35.19140625 156.8359375 C35.51431641 155.46695313 35.51431641 155.46695313 35.84375 154.0703125 C44.18842595 116.30608559 33.31307226 75.5147265 13.21411133 43.27197266 C6.9943257 33.54411929 0.40062992 23.95284999 -8.80859375 16.8359375 C-13.80859375 11.8359375 -13.80859375 11.8359375 -15.26953125 10.34765625 C-22.4621855 3.52928039 -31.2613813 -1.25834428 -39.80859375 -6.1640625 C-40.42009277 -6.51533203 -41.0315918 -6.86660156 -41.66162109 -7.22851562 C-56.37865973 -15.5118994 -73.1656876 -20.61459771 -89.80859375 -23.1640625 C-91.01515625 -23.35935547 -91.01515625 -23.35935547 -92.24609375 -23.55859375 C-94.77383649 -23.88772692 -97.26122832 -24.04858193 -99.80859375 -24.1640625 C-100.45795898 -24.19661133 -101.10732422 -24.22916016 -101.77636719 -24.26269531 C-140.58112465 -25.95879729 -179.18396538 -12.51475505 -208.1472168 13.4909668 C-210.74914235 15.89100893 -213.28199497 18.35716078 -215.80859375 20.8359375 C-217.05576172 22.02509766 -217.05576172 22.02509766 -218.328125 23.23828125 C-223.01555752 27.78197649 -227.12997733 32.57331221 -231.08203125 37.76953125 C-233.60044519 40.7836511 -235.27340754 41.76656151 -239.18359375 42.2734375 C-242.80859375 41.8359375 -242.80859375 41.8359375 -245.74609375 39.7109375 C-248.20916203 36.27756959 -248.24649877 34.97285203 -247.80859375 30.8359375 C-243.36573149 22.35529749 -235.82024324 15.19661219 -229.2265625 8.31689453 C-227.97347657 7.00814466 -226.73373931 5.68664213 -225.49609375 4.36328125 C-211.73747952 -9.97703909 -194.62228719 -19.73236714 -176.80859375 -28.1640625 C-175.66648437 -28.71191406 -174.524375 -29.25976562 -173.34765625 -29.82421875 C-115.23910895 -56.30492037 -46.9214196 -40.7900386 0 0 Z " fill="#623DAA" transform="translate(413.80859375,166.1640625)"/>
<path d="M0 0 C28.17659421 23.66833914 47.2533346 56.8214851 50.5625 93.8125 C52.10021883 123.69837782 46.36156122 151.64342833 31.5625 177.8125 C31.01078125 178.78960937 30.4590625 179.76671875 29.890625 180.7734375 C12.83185001 209.12349688 -15.12244233 229.16818331 -46.4375 238.8125 C-47.16710937 239.0384082 -47.89671875 239.26431641 -48.6484375 239.49707031 C-80.26847328 248.78616927 -114.41233612 242.51976416 -143.12890625 227.65625 C-152.66870918 222.34009063 -161.15443393 215.89830873 -169.4375 208.8125 C-170.27023438 208.12671875 -171.10296875 207.4409375 -171.9609375 206.734375 C-197.8211793 184.70830154 -213.85914999 149.11636142 -216.70458984 115.67333984 C-217.28876366 106.84656712 -217.28876366 106.84656712 -217.40307617 103.07055664 C-217.73746651 96.74621755 -219.08833251 92.87335183 -222.94482422 87.8190918 C-231.66826204 76.09224596 -230.6932172 61.64964166 -230.4375 47.8125 C-229.4475 47.57015625 -228.4575 47.3278125 -227.4375 47.078125 C-215.32370259 44.03970102 -207.55744792 40.51022811 -198.4375 31.8125 C-195.0917926 33.26455198 -192.95417084 35.13243356 -190.375 37.6875 C-182.66501234 44.65298803 -173.45038344 46.27918415 -163.4375 47.8125 C-163.94627164 67.81481474 -165.51728675 84.15607677 -179.86328125 99.37890625 C-191.42398303 110.30806742 -191.42398303 110.30806742 -198.4375 111.8125 C-194.84955144 141.96385724 -184.09560013 168.03105391 -162.4375 189.8125 C-161.96296387 190.29106445 -161.48842773 190.76962891 -160.99951172 191.26269531 C-139.67275892 212.46658982 -110.66421581 224.78320573 -80.5625 225.0625 C-78.18695087 224.99665322 -75.8117788 224.91433137 -73.4375 224.8125 C-72.39851562 224.80476562 -71.35953125 224.79703125 -70.2890625 224.7890625 C-45.48252038 223.97675759 -20.87001178 209.55688631 -3.4375 192.8125 C-2.65375 192.0803125 -1.87 191.348125 -1.0625 190.59375 C4.28624951 185.46184169 8.56297989 180.0436364 12.5625 173.8125 C13.07554687 173.03261719 13.58859375 172.25273437 14.1171875 171.44921875 C21.3934489 159.93161327 26.10903663 146.94636435 29.5625 133.8125 C29.84504639 132.74999023 29.84504639 132.74999023 30.13330078 131.66601562 C31.97338759 123.79261471 31.96191059 115.85398273 31.9375 107.8125 C31.93568726 106.71101624 31.93568726 106.71101624 31.93383789 105.58728027 C31.88305553 94.22008251 31.21854396 83.64160952 27.5625 72.8125 C27.28873535 71.97332031 27.0149707 71.13414062 26.73291016 70.26953125 C16.90168282 40.72789205 -2.99750393 16.08053522 -30.91894531 1.88452148 C-55.11792459 -9.80519877 -85.84879518 -12.77952327 -111.4375 -4.1875 C-112.09814453 -3.97851074 -112.75878906 -3.76952148 -113.43945312 -3.55419922 C-131.45104871 2.18731943 -146.76558739 12.37276621 -159.68359375 26.18359375 C-161.53136945 27.89967942 -163.09379926 28.89458937 -165.4375 29.8125 C-168.9387527 29.66661447 -170.91365008 29.17092363 -173.8125 27.1875 C-176.18946472 23.71347464 -176.19697658 21.95509954 -175.4375 17.8125 C-173.45324454 14.79298083 -170.99016088 12.35567143 -168.4375 9.8125 C-167.78523438 9.1009375 -167.13296875 8.389375 -166.4609375 7.65625 C-123.45818208 -38.08450858 -47.62539513 -37.66674209 0 0 Z M-203.9375 47.5 C-209.50251374 50.99682207 -215.32413617 53.43858209 -221.4375 55.8125 C-222.03967179 71.49126933 -218.87891576 80.25482042 -208.4375 91.8125 C-205.27792525 95.0105931 -201.90712338 97.95559735 -198.4375 100.8125 C-187.90368859 97.21376016 -180.58184192 87.32125234 -175.37890625 77.89453125 C-172.65021719 71.77130077 -172.05039393 64.43537991 -172.4375 57.8125 C-174.44056366 54.72778196 -177.14807957 54.06518244 -180.5625 53 C-185.49476905 51.32106868 -189.31927483 49.11486069 -193.46484375 45.984375 C-197.61126811 43.52115261 -200.33216558 45.11447039 -203.9375 47.5 Z " fill="#EAE9EB" transform="translate(379.4375,189.1875)"/>
<path d="M0 0 C8.17417486 16.27664643 12.97252469 33.08113053 16 51 C16.3403125 52.91619141 16.3403125 52.91619141 16.6875 54.87109375 C23.86685076 101.98558312 11.76135237 155.17528277 -16 194 C-16.46696289 194.65339355 -16.93392578 195.30678711 -17.41503906 195.97998047 C-22.90177998 203.58814206 -28.55807186 210.93615891 -34.9609375 217.8046875 C-37.60573718 220.65215382 -40.09767024 223.62038095 -42.58984375 226.6015625 C-44 228 -44 228 -46 228 C-46 228.66 -46 229.32 -46 230 C-49.44378557 233.25408552 -53.26482644 236.08847483 -57 239 C-57.92353271 239.72582275 -57.92353271 239.72582275 -58.86572266 240.46630859 C-67.84695055 247.49401177 -76.87195052 253.71033008 -87 259 C-87.95108643 259.50225098 -87.95108643 259.50225098 -88.92138672 260.01464844 C-120.57284346 276.63224836 -154.38802102 284.00079298 -190.0625 282.875 C-190.80628906 282.8656543 -191.55007813 282.85630859 -192.31640625 282.84667969 C-196.07470945 282.65911512 -197.72751964 282.25715334 -200.5 279.640625 C-202 277 -202 277 -201.9375 273.875 C-200.96415814 270.89008495 -200.43581488 269.87674191 -198 268 C-195.76123047 267.61523438 -195.76123047 267.61523438 -193.1171875 267.59375 C-191.63279175 267.56438354 -191.63279175 267.56438354 -190.1184082 267.53442383 C-189.0480835 267.52306396 -187.97775879 267.5117041 -186.875 267.5 C-142.72660793 266.30714594 -100.93487292 254.07240998 -67 225 C-65.08434073 223.47789794 -63.16767154 221.95706605 -61.25 220.4375 C-57.33763186 217.23445639 -53.93972858 213.95645043 -50.72265625 210.0625 C-48.83803563 207.80608348 -46.83079247 205.69994033 -44.8125 203.5625 C-12.9269619 167.89393196 2.24326442 118.40899009 0 71 C-1.07236861 53.67082119 -4.84574051 36.92932365 -10.06933594 20.40869141 C-10.31973633 19.61382324 -10.57013672 18.81895508 -10.828125 18 C-11.0540332 17.29875 -11.27994141 16.5975 -11.51269531 15.875 C-12 14 -12 14 -12 11 C-12.66 11 -13.32 11 -14 11 C-13.67 10.34 -13.34 9.68 -13 9 C-11.7625 9.0825 -10.525 9.165 -9.25 9.25 C-6.11950176 9.2444593 -5.22408103 9.15513302 -2.5625 7.3125 C-0.87415352 4.81374721 -0.33083605 2.97752446 0 0 Z " fill="#5F3BA6" transform="translate(485,210)"/>
<path d="M0 0 C28.24762757 23.72800716 47.11902171 56.78815785 50.5625 93.8125 C50.8138582 97.64650355 50.92775997 101.47132321 51 105.3125 C51.04576172 106.30636719 51.09152344 107.30023438 51.13867188 108.32421875 C51.23485572 114.6556246 50.26453839 118.40621321 46.32348633 123.3996582 C43.56523591 125.61260638 40.94541945 125.55587528 37.515625 125.38671875 C35.5625 124.8125 35.5625 124.8125 33.5625 121.8125 C33.29125977 119.01611328 33.29125977 119.01611328 33.25390625 115.6328125 C33.22876953 114.39273438 33.20363281 113.15265625 33.17773438 111.875 C33.14310186 109.28910559 33.11174793 106.70316478 33.08398438 104.1171875 C32.42930729 73.07591322 18.50930054 45.08504741 -2.4375 22.8125 C-3.03691406 22.13703125 -3.63632812 21.4615625 -4.25390625 20.765625 C-19.63867053 4.15140872 -45.07985058 -7.10502443 -67.6027832 -8.36450195 C-89.83621863 -8.83112532 -89.83621863 -8.83112532 -111.4375 -4.1875 C-112.09814453 -3.97851074 -112.75878906 -3.76952148 -113.43945312 -3.55419922 C-131.45104871 2.18731943 -146.76558739 12.37276621 -159.68359375 26.18359375 C-161.53136945 27.89967942 -163.09379926 28.89458937 -165.4375 29.8125 C-168.9387527 29.66661447 -170.91365008 29.17092363 -173.8125 27.1875 C-176.18946472 23.71347464 -176.19697658 21.95509954 -175.4375 17.8125 C-173.45324454 14.79298083 -170.99016088 12.35567143 -168.4375 9.8125 C-167.78523437 9.1009375 -167.13296875 8.389375 -166.4609375 7.65625 C-123.45818208 -38.08450858 -47.62539513 -37.66674209 0 0 Z " fill="#E8E8EA" transform="translate(379.4375,189.1875)"/>
<path d="M0 0 C1.35353828 -0.01210762 1.35353828 -0.01210762 2.73442078 -0.02445984 C4.65536567 -0.03832974 6.57633551 -0.04903881 8.49731445 -0.05688477 C11.39910026 -0.07392445 14.29969433 -0.11776094 17.20117188 -0.16210938 C33.17877563 -0.29696951 46.83210008 2.26932594 58.94921875 13.55078125 C68.49012704 23.74271623 71.57082893 36.6505649 71.34765625 50.1953125 C70.9217044 61.56717517 65.13536911 73.23963089 57.13671875 81.23828125 C44.86701313 91.36636552 32.50688316 93.45642488 17.07421875 93.30078125 C15.77581055 93.29401367 15.77581055 93.29401367 14.45117188 93.28710938 C12.34632336 93.27548038 10.24151117 93.25755198 8.13671875 93.23828125 C8.1116626 93.96007568 8.08660645 94.68187012 8.06079102 95.42553711 C7.94520573 98.67581625 7.82231101 101.92577813 7.69921875 105.17578125 C7.65990234 106.31208984 7.62058594 107.44839844 7.58007812 108.61914062 C7.53818359 109.69873047 7.49628906 110.77832031 7.453125 111.890625 C7.41646729 112.89085693 7.37980957 113.89108887 7.34204102 114.92163086 C7.13671875 117.23828125 7.13671875 117.23828125 6.13671875 118.23828125 C1.18671875 118.23828125 -3.76328125 118.23828125 -8.86328125 118.23828125 C-8.86328125 87.21828125 -8.86328125 56.19828125 -8.86328125 24.23828125 C-3.91328125 24.23828125 1.03671875 24.23828125 6.13671875 24.23828125 C6.30404866 31.32229349 6.46463747 38.40641371 6.61889648 45.49072266 C6.6723662 47.90222315 6.72769929 50.31368306 6.78491211 52.72509766 C6.8666844 56.18513231 6.94182094 59.64525613 7.015625 63.10546875 C7.04266006 64.18883514 7.06969513 65.27220154 7.09754944 66.38839722 C7.11764572 67.38928375 7.137742 68.39017029 7.15844727 69.42138672 C7.17843277 70.30519012 7.19841827 71.18899353 7.2190094 72.09957886 C7.13671875 74.23828125 7.13671875 74.23828125 6.13671875 76.23828125 C10.09607831 76.18579145 14.05335757 76.09057598 18.01171875 75.98828125 C19.1203125 75.97410156 20.22890625 75.95992188 21.37109375 75.9453125 C30.88024893 75.66563147 39.48727113 73.75241873 46.6015625 67.05859375 C52.62245355 59.91931836 54.63673458 51.905159 53.94921875 42.73828125 C52.82138546 35.21939267 49.70064098 28.59419246 44.12890625 23.34765625 C33.67427181 15.62846379 20.3502652 17.00357456 8.01171875 17.17578125 C5.59938439 17.20342358 3.18710773 17.22805955 0.77468872 17.2469635 C-0.71554026 17.25921034 -2.20573687 17.27680409 -3.6958313 17.30027771 C-5.41835555 17.31719077 -7.14125363 17.28296593 -8.86328125 17.23828125 C-10.61888067 15.48268183 -9.99550044 13.20245683 -10 10.8671875 C-9.99613281 10.16464844 -9.99226563 9.46210938 -9.98828125 8.73828125 C-9.99214844 8.03574219 -9.99601562 7.33320313 -10 6.609375 C-9.98471018 -1.32604335 -7.03374993 0.05931986 0 0 Z " fill="#E9E9EB" transform="translate(296.86328125,225.76171875)"/>
<path d="M0 0 C5.28 0 10.56 0 16 0 C16 40.92 16 81.84 16 124 C40.42 124 64.84 124 90 124 C90 129.28 90 134.56 90 140 C78.41311598 140.02312228 66.82623741 140.0409145 55.23933506 140.05181217 C49.85966238 140.05704125 44.48000542 140.06413935 39.1003418 140.07543945 C33.91325157 140.08626745 28.72617651 140.09227665 23.53907585 140.09487724 C21.5554372 140.09673165 19.57179942 140.10035256 17.58816719 140.10573006 C14.81990864 140.11293932 12.05171362 140.11399099 9.28344727 140.11352539 C8.04051659 140.1189183 8.04051659 140.1189183 6.7724762 140.12442017 C1.11405216 140.11405216 1.11405216 140.11405216 0 139 C-0.09639184 137.20305962 -0.12187425 135.40229107 -0.12025452 133.60276794 C-0.12162918 132.43182587 -0.12300385 131.26088379 -0.12442017 130.05445862 C-0.12082489 128.75830124 -0.11722961 127.46214386 -0.11352539 126.12670898 C-0.11324352 124.75712079 -0.11340125 123.38753244 -0.1139679 122.01794434 C-0.11425588 118.28877052 -0.10835909 114.55962859 -0.10139394 110.83046222 C-0.09516047 106.93735587 -0.09455661 103.04424887 -0.09336853 99.15113831 C-0.09025519 91.77401854 -0.08204178 84.39691351 -0.07201904 77.01980025 C-0.06085797 68.62332457 -0.05534747 60.22684821 -0.05032361 51.83036697 C-0.03985916 34.5535692 -0.02205924 17.27678672 0 0 Z " fill="#E6E5E7" transform="translate(257,227)"/>
<path d="M0 0 C4.06795525 2.25612837 6.7427452 5.51763654 9.81640625 8.96484375 C36.98528799 38.57416302 71.34087061 56.80804732 111.75390625 59.52734375 C115.68608981 59.64588364 119.61320137 59.64500196 123.546875 59.625 C124.61891678 59.62358505 125.69095856 59.6221701 126.79548645 59.62071228 C130.17748963 59.61517077 133.55942351 59.60262962 136.94140625 59.58984375 C139.25195216 59.58482118 141.56249912 59.5802596 143.87304688 59.57617188 C149.50002619 59.56522058 155.12695452 59.5479972 160.75390625 59.52734375 C161.08390625 63.48734375 161.41390625 67.44734375 161.75390625 71.52734375 C158.18739172 73.9050201 154.8933939 74.409128 150.75390625 75.08984375 C149.98425537 75.21915283 149.21460449 75.34846191 148.42163086 75.48168945 C104.45642022 82.68857191 59.70541735 71.87237913 23.55883789 45.93457031 C18.69672284 42.35104365 14.1513843 38.55507644 9.75390625 34.41015625 C8.07594057 32.83050888 6.3755193 31.38763578 4.56640625 29.96484375 C1.52096949 27.32546522 -1.04537451 24.50834205 -3.63671875 21.4296875 C-4.90509845 19.93041344 -6.25060935 18.49639353 -7.62109375 17.08984375 C-9.96099578 13.39999824 -10.72774157 9.88586171 -10.24609375 5.52734375 C-7.50664657 1.87474752 -4.850781 -1.02077305 0 0 Z " fill="#8C6AC1" transform="translate(177.24609375,391.47265625)"/>
<path d="M0 0 C1.8572168 0.00676758 1.8572168 0.00676758 3.75195312 0.01367188 C6.77218785 0.02533301 9.79231677 0.04169764 12.8125 0.0625 C12.8125 0.3925 12.8125 0.7225 12.8125 1.0625 C9.8425 1.0625 6.8725 1.0625 3.8125 1.0625 C3.82410156 1.79855469 3.83570313 2.53460938 3.84765625 3.29296875 C3.85667969 4.26878906 3.86570312 5.24460938 3.875 6.25 C3.88660156 7.21292969 3.89820313 8.17585937 3.91015625 9.16796875 C3.81718299 11.92369629 3.38517638 14.37349705 2.8125 17.0625 C2.22573486 17.10213867 1.63896973 17.14177734 1.03442383 17.18261719 C-41.45440036 20.16892033 -77.29631048 33.08172156 -108.1875 63.0625 C-109.0228125 63.85785156 -109.858125 64.65320313 -110.71875 65.47265625 C-115.39892999 70.01659812 -119.51181763 74.80373244 -123.4609375 79.99609375 C-125.97935144 83.0102136 -127.65231379 83.99312401 -131.5625 84.5 C-135.1875 84.0625 -135.1875 84.0625 -138.125 81.9375 C-140.58806828 78.50413209 -140.62540502 77.19941453 -140.1875 73.0625 C-135.74463774 64.58185999 -128.19914949 57.42317469 -121.60546875 50.54345703 C-120.35238282 49.23470716 -119.11264556 47.91320463 -117.875 46.58984375 C-104.11638577 32.24952341 -87.00119344 22.49419536 -69.1875 14.0625 C-68.04539062 13.51464844 -66.90328125 12.96679688 -65.7265625 12.40234375 C-44.99504744 2.95476521 -22.60213814 -0.15839773 0 0 Z " fill="#603CA8" transform="translate(306.1875,123.9375)"/>
<path d="M0 0 C0.33 0 0.66 0 1 0 C1.02505615 0.86278564 1.0501123 1.72557129 1.07592773 2.61450195 C1.17111385 5.81823769 1.27034444 9.02181537 1.37231445 12.2253418 C1.41560218 13.61135983 1.45728164 14.99742906 1.49731445 16.38354492 C1.55516584 18.37691798 1.61929776 20.37010565 1.68359375 22.36328125 C1.72025146 23.56251221 1.75690918 24.76174316 1.79467773 25.99731445 C1.87733025 29.04994349 1.87733025 29.04994349 3 32 C8.02705917 31.87952582 11.09872551 31.75412763 15.0625 28.4375 C16.0215625 27.2309375 16.0215625 27.2309375 17 26 C17.15977606 31.69441875 16.70496159 36.76579921 15.4375 42.3125 C15.26186523 43.0844873 15.08623047 43.85647461 14.90527344 44.65185547 C6.206843 80.9148079 -15.06892026 112.21581771 -47.02636719 131.82714844 C-55.77932967 137.02868626 -64.80049205 141.15331837 -74.4375 144.4375 C-75.15848877 144.68467773 -75.87947754 144.93185547 -76.62231445 145.18652344 C-81.74278316 146.83703433 -86.64034772 147.54060123 -92 148 C-91.67692871 147.38125 -91.35385742 146.7625 -91.02099609 146.125 C-89.42142322 142.79580768 -89.36299341 139.61464204 -90 136 C-91.83341465 133.49479421 -91.83341465 133.49479421 -94 132 C-89.22260732 129.85140458 -84.55493468 128.23548466 -79.5 126.8125 C-55.61908743 119.63041711 -32.97348019 102.29812998 -20 81 C-19.4946875 80.22785156 -18.989375 79.45570313 -18.46875 78.66015625 C-6.21653588 59.37542128 -0.87256809 37.44178603 -0.375 14.875 C-0.33672566 13.42706228 -0.29766882 11.97914503 -0.2578125 10.53125 C-0.16286386 7.02102298 -0.07846785 3.51063868 0 0 Z " fill="#5F3BA8" transform="translate(412,282)"/>
<path d="M0 0 C37.5016603 -2.5863214 74.3887077 16.01075127 102.29760742 39.81054688 C121.76032309 56.76436173 121.76032309 56.76436173 122.25 63.375 C120.55821278 68.28118294 117.53458301 71.44246153 113 74 C111.015625 74.01953125 111.015625 74.01953125 109 73 C106.81640625 70.63671875 106.81640625 70.63671875 104.5625 67.6875 C101.63915322 63.87952307 98.82494662 60.90037343 95 58 C90 53 90 53 88.5390625 51.51171875 C81.34640825 44.69334289 72.54721245 39.90571822 64 35 C63.38850098 34.64873047 62.77700195 34.29746094 62.14697266 33.93554688 C42.67990376 22.97864129 20.93106047 18.64417041 -1 16 C-1.33 15.01 -1.66 14.02 -2 13 C-1.67 12.34 -1.34 11.68 -1 11 C-0.7724985 9.12943209 -0.59037189 7.25314042 -0.4375 5.375 C-0.35371094 4.37210938 -0.26992188 3.36921875 -0.18359375 2.3359375 C-0.12300781 1.56507812 -0.06242187 0.79421875 0 0 Z " fill="#8D6AC3" transform="translate(310,125)"/>
<path d="M0 0 C3.3457074 1.45205198 5.48332916 3.31993356 8.0625 5.875 C15.77248766 12.84048803 24.98711656 14.46668415 35 16 C34.49122836 36.00231474 32.92021325 52.34357677 18.57421875 67.56640625 C6.48052386 78.99944406 6.48052386 78.99944406 0 80 C0 81.98 0 83.96 0 86 C-0.33 86 -0.66 86 -1 86 C-1 83.36 -1 80.72 -1 78 C-1.53109375 77.76539063 -2.0621875 77.53078125 -2.609375 77.2890625 C-5.71831111 75.61267538 -8.45370326 73.51536585 -11.25 71.375 C-13.1475 69.93125 -15.045 68.4875 -17 67 C-16.67 75.91 -16.34 84.82 -16 94 C-16.33 94 -16.66 94 -17 94 C-17.05945801 93.10804932 -17.11891602 92.21609863 -17.18017578 91.29711914 C-17.41637263 87.94577727 -17.6764248 84.59799006 -17.95214844 81.24975586 C-18.06605309 79.80841149 -18.17077183 78.36630736 -18.265625 76.92358398 C-18.79476501 68.97270421 -19.346177 62.28722819 -24.53369141 55.83740234 C-33.50095031 44.60070729 -32.24897891 29.47252544 -32 16 C-31.01 15.75765625 -30.02 15.5153125 -29 15.265625 C-16.88620259 12.22720102 -9.11994792 8.69772811 0 0 Z M-5.5 15.6875 C-11.06501374 19.18432207 -16.88663617 21.62608209 -23 24 C-23.60217179 39.67876933 -20.44141576 48.44232042 -10 60 C-6.84042525 63.1980931 -3.46962338 66.14309735 0 69 C10.53381141 65.40126016 17.85565808 55.50875234 23.05859375 46.08203125 C25.78728281 39.95880077 26.38710607 32.62287991 26 26 C23.99693634 22.91528196 21.28942043 22.25268244 17.875 21.1875 C12.94273095 19.50856868 9.11822517 17.30236069 4.97265625 14.171875 C0.82623189 11.70865261 -1.89466558 13.30197039 -5.5 15.6875 Z " fill="#A177D2" transform="translate(181,221)"/>
<path d="M0 0 C1.9375 0.6875 1.9375 0.6875 2.9375 2.6875 C5.64349842 3.16347366 8.27345404 3.52843629 11 3.8125 C11.75861328 3.89886719 12.51722656 3.98523438 13.29882812 4.07421875 C15.17746986 4.28689517 17.05738636 4.48825459 18.9375 4.6875 C19.46796056 24.56994762 17.76467901 40.12979732 3.51171875 55.25390625 C-8.58197614 66.68694406 -8.58197614 66.68694406 -15.0625 67.6875 C-15.0625 69.6675 -15.0625 71.6475 -15.0625 73.6875 C-15.3925 73.6875 -15.7225 73.6875 -16.0625 73.6875 C-16.0625 71.0475 -16.0625 68.4075 -16.0625 65.6875 C-16.59359375 65.45289063 -17.1246875 65.21828125 -17.671875 64.9765625 C-20.78081111 63.30017538 -23.51620326 61.20286585 -26.3125 59.0625 C-29.15875 56.896875 -29.15875 56.896875 -32.0625 54.6875 C-31.7325 63.5975 -31.4025 72.5075 -31.0625 81.6875 C-31.3925 81.6875 -31.7225 81.6875 -32.0625 81.6875 C-33.2349667 75.13492399 -33.28179073 68.64471855 -33.3125 62 C-33.333125 60.87271484 -33.35375 59.74542969 -33.375 58.58398438 C-33.38015625 57.50052734 -33.3853125 56.41707031 -33.390625 55.30078125 C-33.3999707 54.31891846 -33.40931641 53.33705566 -33.41894531 52.32543945 C-33.00975696 49.29716536 -32.07920293 47.93549147 -30.0625 45.6875 C-29.3509375 46.55375 -29.3509375 46.55375 -28.625 47.4375 C-25.68977822 50.01476791 -22.8610816 51.27438913 -19.28125 52.7578125 C-17.15573988 53.64843118 -15.11178972 54.63491028 -13.0625 55.6875 C-4.12173311 49.03123053 3.13554855 41.93644116 7.9375 31.6875 C8.5975 31.6875 9.2575 31.6875 9.9375 31.6875 C10.82389389 29.02831834 11.11739025 27.20685359 11.25390625 24.45703125 C11.31674805 23.25336914 11.31674805 23.25336914 11.38085938 22.02539062 C11.42017578 21.19201172 11.45949219 20.35863281 11.5 19.5 C11.56477539 18.2325293 11.56477539 18.2325293 11.63085938 16.93945312 C11.73681518 14.85565567 11.8376502 12.77159897 11.9375 10.6875 C11.2775 10.6875 10.6175 10.6875 9.9375 10.6875 C9.9375 9.6975 9.9375 8.7075 9.9375 7.6875 C8.92429687 7.61402344 8.92429687 7.61402344 7.890625 7.5390625 C6.99859375 7.46429688 6.1065625 7.38953125 5.1875 7.3125 C4.30578125 7.24289063 3.4240625 7.17328125 2.515625 7.1015625 C-0.05316382 6.68899945 -1.82091015 5.97589043 -4.0625 4.6875 C-4.0625 3.3675 -4.0625 2.0475 -4.0625 0.6875 C-2.0625 -0.3125 -2.0625 -0.3125 0 0 Z " fill="#9876C8" transform="translate(196.0625,233.3125)"/>
<path d="M0 0 C0 9.57 0 19.14 0 29 C-3.5361916 29 -4.91251645 27.98012866 -7.50390625 25.66015625 C-13.12407086 19.42368116 -13.3999273 12.61201916 -13.140625 4.52734375 C-13.09421875 3.69332031 -13.0478125 2.85929688 -13 2 C-11.21089097 1.47044766 -9.41860852 0.9516063 -7.625 0.4375 C-6.62726563 0.14746094 -5.62953125 -0.14257812 -4.6015625 -0.44140625 C-2 -1 -2 -1 0 0 Z " fill="#976FC4" transform="translate(176,248)"/>
<path d="M0 0 C-0.99 0 -1.98 0 -3 0 C-3 0.66 -3 1.32 -3 2 C-4.65 1.67 -6.3 1.34 -8 1 C-8 6.61 -8 12.22 -8 18 C-7.34 18 -6.68 18 -6 18 C-5.67 20.31 -5.34 22.62 -5 25 C-4.34 25 -3.68 25 -3 25 C-1.81304447 21.43913342 -1.64904582 18.02668976 -1.4375 14.3125 C-1.37272461 13.2596582 -1.37272461 13.2596582 -1.30664062 12.18554688 C-1.2008264 10.45724794 -1.09993419 8.7286489 -1 7 C-0.34 7.33 0.32 7.66 1 8 C0.96519531 8.90621094 0.93039063 9.81242188 0.89453125 10.74609375 C0.55993176 25.80307074 4.81835075 32.71925659 14 44 C15.00797632 45.32731365 16.01200023 46.65775031 17 48 C13.22454612 46.90931332 10.52956528 46.0916909 8 43 C5.57520264 46.63719605 5.61337423 48.85703482 5.375 53.1875 C5.30023438 54.45980469 5.22546875 55.73210937 5.1484375 57.04296875 C5.09945312 58.01878906 5.05046875 58.99460937 5 60 C4.67 60 4.34 60 4 60 C3.99742187 59.16597656 3.99484375 58.33195312 3.9921875 57.47265625 C3.7455766 50.29627896 2.90724991 45.83067794 -1.44140625 40.10546875 C-10.18521147 28.29366169 -9.25748117 13.93259213 -9 0 C-5.59254812 -0.76286236 -3.35001838 -1.11667279 0 0 Z " fill="#8466AD" transform="translate(158,237)"/>
<path d="M0 0 C11 2 11 2 12 3 C12.04092937 5.33297433 12.04241723 7.66705225 12 10 C12.66 10 13.32 10 14 10 C14.6875 11.75 14.6875 11.75 15 14 C13.6875 16.25 13.6875 16.25 12 18 C11.34 18 10.68 18 10 18 C9.773125 18.886875 9.54625 19.77375 9.3125 20.6875 C7.80889801 24.48230501 6.08494714 26.36650854 3 29 C2.01 29.33 1.02 29.66 0 30 C0 20.1 0 10.2 0 0 Z " fill="#9A72C7" transform="translate(189,248)"/>
<path d="M0 0 C0.639375 0.5775 1.27875 1.155 1.9375 1.75 C5.18645965 4.13699076 8.26348755 5.4639012 12.01171875 6.875 C14.44352888 8.25095544 14.82918789 9.52883912 16 12 C16.99 12.33 17.98 12.66 19 13 C19.33 14.65 19.66 16.3 20 18 C19.34 18.33 18.68 18.66 18 19 C17.34 18.67 16.68 18.34 16 18 C16 21.3 16 24.6 16 28 C15.67 28 15.34 28 15 28 C15 25.36 15 22.72 15 20 C14.46890625 19.76539063 13.9378125 19.53078125 13.390625 19.2890625 C10.28168889 17.61267538 7.54629674 15.51536585 4.75 13.375 C2.8525 11.93125 0.955 10.4875 -1 9 C-0.67 17.91 -0.34 26.82 0 36 C-0.33 36 -0.66 36 -1 36 C-2.1824635 29.44442235 -2.18365928 22.96078858 -2.1875 16.3125 C-2.19974609 15.18521484 -2.21199219 14.05792969 -2.22460938 12.89648438 C-2.22654297 11.81302734 -2.22847656 10.72957031 -2.23046875 9.61328125 C-2.23457764 8.63141846 -2.23868652 7.64955566 -2.24291992 6.63793945 C-1.99455464 3.94086721 -1.37817854 2.30606789 0 0 Z " fill="#A177D4" transform="translate(165,279)"/>
<path d="M0 0 C1.0326802 2.78823655 1.04509293 3.8677274 0.0625 6.75 C-0.4634375 7.86375 -0.4634375 7.86375 -1 9 C-1.66 9 -2.32 9 -3 9 C-3.04125 9.556875 -3.0825 10.11375 -3.125 10.6875 C-4.43111823 14.13938389 -7.20420453 15.67017044 -10 18 C-10.94436349 20.16531168 -10.94436349 20.16531168 -11 22 C-7.99204833 22.34509128 -7.99204833 22.34509128 -6.39453125 20.46875 C-5.87246094 19.8190625 -5.35039062 19.169375 -4.8125 18.5 C-4.28269531 17.8503125 -3.75289062 17.200625 -3.20703125 16.53125 C-2.80871094 16.0259375 -2.41039062 15.520625 -2 15 C-1.01 15.66 -0.02 16.32 1 17 C-4.70034277 24.09189704 -13.44220006 34.54357334 -23 36 C-23 34.68 -23 33.36 -23 32 C-22.01 31.67 -21.02 31.34 -20 31 C-20.57344937 28.13275314 -20.8614515 27.1385485 -23 25 C-21.7625 24.2265625 -21.7625 24.2265625 -20.5 23.4375 C-11.49819413 17.35863345 -4.67879526 9.87998028 0 0 Z " fill="#A177D8" transform="translate(204,265)"/>
<path d="M0 0 C1.9375 0.6875 1.9375 0.6875 2.9375 2.6875 C5.65058319 3.16471984 8.26723815 3.52736541 11 3.8125 C13.619375 4.10125 16.23875 4.39 18.9375 4.6875 C18.9375 11.2875 18.9375 17.8875 18.9375 24.6875 C17.9475 24.3575 16.9575 24.0275 15.9375 23.6875 C15.6075 24.3475 15.2775 25.0075 14.9375 25.6875 C15.5975 25.6875 16.2575 25.6875 16.9375 25.6875 C16.6075 27.0075 16.2775 28.3275 15.9375 29.6875 C14.9475 29.0275 13.9575 28.3675 12.9375 27.6875 C12.55365491 24.75152461 12.333657 22.00722627 12.25 19.0625 C12.19875977 17.85980469 12.19875977 17.85980469 12.14648438 16.6328125 C12.06393122 14.65153682 11.99904084 12.66953963 11.9375 10.6875 C11.2775 10.6875 10.6175 10.6875 9.9375 10.6875 C9.9375 9.6975 9.9375 8.7075 9.9375 7.6875 C8.92429688 7.61402344 8.92429688 7.61402344 7.890625 7.5390625 C6.55257812 7.42691406 6.55257812 7.42691406 5.1875 7.3125 C4.30578125 7.24289063 3.4240625 7.17328125 2.515625 7.1015625 C-0.05316382 6.68899945 -1.82091015 5.97589043 -4.0625 4.6875 C-4.0625 3.3675 -4.0625 2.0475 -4.0625 0.6875 C-2.0625 -0.3125 -2.0625 -0.3125 0 0 Z " fill="#9F79D3" transform="translate(196.0625,233.3125)"/>
<path d="M0 0 C0.66 0.66 1.32 1.32 2 2 C1.01 2 0.02 2 -1 2 C-1.433125 3.1446875 -1.433125 3.1446875 -1.875 4.3125 C-3 7 -3 7 -5 10 C-5.99 10 -6.98 10 -8 10 C-7.97679687 11.04800781 -7.95359375 12.09601563 -7.9296875 13.17578125 C-7.91092697 14.55468037 -7.89272707 15.9335872 -7.875 17.3125 C-7.84986328 18.34793945 -7.84986328 18.34793945 -7.82421875 19.40429688 C-7.78782206 23.17135396 -7.85621136 24.78431704 -10 28 C-10.66 28 -11.32 28 -12 28 C-12.33 25.69 -12.66 23.38 -13 21 C-13.66 21 -14.32 21 -15 21 C-15 15.39 -15 9.78 -15 4 C-12.525 4.495 -12.525 4.495 -10 5 C-10 4.34 -10 3.68 -10 3 C-5.05 1.515 -5.05 1.515 0 0 Z " fill="#A07BD0" transform="translate(165,234)"/>
<path d="M0 0 C1.28390625 0.43119141 1.28390625 0.43119141 2.59375 0.87109375 C5.88786358 1.96283552 9.1882285 3.02560011 12.5 4.0625 C13.5828125 4.40410156 14.665625 4.74570313 15.78125 5.09765625 C18.84893523 5.95765053 21.85008714 6.53984707 25 7 C25 9.31 25 11.62 25 14 C24.67 14 24.34 14 24 14 C24 12.02 24 10.04 24 8 C22.87980469 7.95101562 21.75960937 7.90203125 20.60546875 7.8515625 C19.13278797 7.77652144 17.66013293 7.70097418 16.1875 7.625 C15.44951172 7.5940625 14.71152344 7.563125 13.95117188 7.53125 C10.18106885 7.32653852 8.20349259 7.13566173 5 5 C5 4.34 5 3.68 5 3 C3.68 3.33 2.36 3.66 1 4 C1 5.32 1 6.64 1 8 C7.98533796 9.56901859 7.98533796 9.56901859 15 11 C15 11.99 15 12.98 15 14 C15.66 14 16.32 14 17 14 C17.08086376 16.93804996 17.1404283 19.87388075 17.1875 22.8125 C17.21263672 23.64587891 17.23777344 24.47925781 17.26367188 25.33789062 C17.27333984 26.14033203 17.28300781 26.94277344 17.29296875 27.76953125 C17.3086792 28.50792236 17.32438965 29.24631348 17.34057617 30.00708008 C17 32 17 32 14 35 C14.33 28.4 14.66 21.8 15 15 C12.36 14.34 9.72 13.68 7 13 C4.171875 11.81640625 4.171875 11.81640625 1.75 10.5625 C0.94046875 10.15128906 0.1309375 9.74007812 -0.703125 9.31640625 C-3 8 -3 8 -5.14453125 6.328125 C-6.95213768 4.73367675 -6.95213768 4.73367675 -9.4375 5.1875 C-12.02026199 6.00642453 -14.50982176 6.93278075 -17 8 C-16.42655063 5.13275314 -16.1385485 4.1385485 -14 2 C-10.7421875 2.0234375 -10.7421875 2.0234375 -6.875 2.375 C-5.59367188 2.48585937 -4.31234375 2.59671875 -2.9921875 2.7109375 C-2.00476563 2.80632812 -1.01734375 2.90171875 0 3 C0 2.01 0 1.02 0 0 Z " fill="#9573BB" transform="translate(191,230)"/>
<path d="M0 0 C1.8572168 0.00676758 1.8572168 0.00676758 3.75195312 0.01367188 C6.77218785 0.02533301 9.79231677 0.04169764 12.8125 0.0625 C12.8125 0.3925 12.8125 0.7225 12.8125 1.0625 C9.8425 1.0625 6.8725 1.0625 3.8125 1.0625 C3.4825 2.0525 3.1525 3.0425 2.8125 4.0625 C2.14831055 4.05726318 1.48412109 4.05202637 0.79980469 4.04663086 C-22.62176964 2.12286019 -22.62176964 2.12286019 -44.02734375 8.5625 C-46.89062032 10.55074268 -49.30939012 10.75693449 -52.75 11.1875 C-56.07329648 11.61752928 -59.00636933 12.00212311 -62.1875 13.0625 C-62.5175 13.7225 -62.8475 14.3825 -63.1875 15.0625 C-65.125 15.8125 -65.125 15.8125 -67.1875 16.0625 C-67.8475 15.4025 -68.5075 14.7425 -69.1875 14.0625 C-47.27135664 3.65858855 -24.13153659 -0.16911589 0 0 Z " fill="#492F7C" transform="translate(306.1875,123.9375)"/>
<path d="M0 0 C0.66 0 1.32 0 2 0 C3.91250006 4.15308591 4.52755852 8.03572632 5.0625 12.5625 C5.55571702 17.26129456 5.55571702 17.26129456 6.52075195 21.87109375 C7.10802794 24.4798796 7.12972338 26.88407503 7.1328125 29.55859375 C7.13490723 30.6573584 7.13700195 31.75612305 7.13916016 32.88818359 C7.1344873 34.05945801 7.12981445 35.23073242 7.125 36.4375 C7.12161621 37.63713379 7.11823242 38.83676758 7.11474609 40.07275391 C7.07136629 47.67834375 6.94030296 55.27565269 6.625 62.875 C6.59422363 63.72892334 6.56344727 64.58284668 6.53173828 65.46264648 C6.32128302 69.76300727 5.79342737 73.03376639 4 77 C3.67361718 78.68113056 3.38146723 80.36929291 3.125 82.0625 C2.36475864 86.17638671 1.49618991 88.4361274 -2 91 C-1.71253906 89.71609375 -1.42507813 88.4321875 -1.12890625 87.109375 C3.13548467 68.22916498 3.13548467 68.22916498 5 49 C5.03996094 48.09121094 5.07992188 47.18242187 5.12109375 46.24609375 C5.43488664 32.97450034 3.99586498 19.36068013 0.5859375 6.53125 C0 4 0 4 0 0 Z " fill="#4F3582" transform="translate(447,251)"/>
<path d="M0 0 C4.58778697 8.41754113 3.24105669 19.45174694 3.25 28.8125 C3.25100708 29.54410339 3.25201416 30.27570679 3.25305176 31.02947998 C3.2369503 48.36080355 0.95515148 64.39898489 -4 81 C-4.33 81 -4.66 81 -5 81 C-5.02688151 79.35425434 -5.04634123 77.70838587 -5.0625 76.0625 C-5.07410156 75.14597656 -5.08570313 74.22945313 -5.09765625 73.28515625 C-5 71 -5 71 -4 70 C-3.71421971 67.55045463 -3.55198281 65.1005217 -3.37890625 62.640625 C-3 60 -3 60 -2.0480957 57.84033203 C-0.72274079 54.24862949 -0.25937712 50.69587331 0.1484375 46.9140625 C0.2765834 45.73670029 0.2765834 45.73670029 0.40731812 44.53555298 C1.29005537 35.46284477 0.98971794 26.46767111 0.625 17.375 C0.56651959 15.67451963 0.50922328 13.97399812 0.453125 12.2734375 C0.31564249 8.18169137 0.16245164 4.09082769 0 0 Z " fill="#4A2F7F" transform="translate(467,264)"/>
<path d="M0 0 C3.75584298 3.3699687 6.1168919 7.12153478 8.625 11.4375 C9.05377441 12.17250732 9.48254883 12.90751465 9.92431641 13.66479492 C29.20496826 47.34452113 29.20496826 47.34452113 27.58203125 56.30859375 C27.38996094 56.86675781 27.19789063 57.42492187 27 58 C24.96564469 54.27034861 24 52.33094958 24 48 C23.34 48 22.68 48 22 48 C20.68373308 44.38026598 20 41.90432869 20 38 C18.515 37.505 18.515 37.505 17 37 C15.859375 34.19140625 15.859375 34.19140625 14.75 30.5625 C12.83853658 24.650703 10.36066013 20.08500195 6.453125 15.18359375 C4.84171006 12.76213959 4.52191771 10.82705424 4 8 C3.34 7.67 2.68 7.34 2 7 C1.26924352 4.6859378 0.59861742 2.35171131 0 0 Z " fill="#583A96" transform="translate(436,192)"/>
<path d="M0 0 C1.77206192 0.00015919 3.54412846 0.00585754 5.31616211 0.01586914 C6.24698105 0.01728409 7.17779999 0.01869904 8.13682556 0.02015686 C11.12241777 0.02577367 14.10793615 0.03832899 17.09350586 0.05102539 C19.11238499 0.05603823 21.13126529 0.06060151 23.15014648 0.06469727 C28.11046158 0.07574856 33.07072118 0.09302444 38.03100586 0.11352539 C38.03100586 0.44352539 38.03100586 0.77352539 38.03100586 1.11352539 C24.50100586 1.11352539 10.97100586 1.11352539 -2.96899414 1.11352539 C-2.96899414 5.73352539 -2.96899414 10.35352539 -2.96899414 15.11352539 C-1.89528564 15.10305176 -0.82157715 15.09257812 0.28466797 15.08178711 C4.30465299 15.04532531 8.32462367 15.02253052 12.34472656 15.00366211 C14.07782457 14.99366378 15.81090596 14.98006066 17.54394531 14.96264648 C20.0487887 14.93812455 22.55340722 14.92698043 25.05834961 14.91821289 C25.82122787 14.90789032 26.58410614 14.89756775 27.37010193 14.88693237 C32.68761426 14.885847 37.98688817 15.31031848 43.03100586 17.11352539 C43.52600586 18.10352539 43.52600586 18.10352539 44.03100586 19.11352539 C43.30429687 18.96987549 42.57758789 18.82622559 41.82885742 18.67822266 C32.08320372 16.94718596 22.64662922 16.91182967 12.78100586 17.05102539 C10.38210957 17.07868461 7.98327117 17.10330485 5.58428955 17.12220764 C4.10518878 17.13444046 2.62612041 17.15202043 1.14715576 17.17552185 C-0.55826892 17.19243112 -2.26407127 17.15821625 -3.96899414 17.11352539 C-5.72459356 15.35792597 -5.10121334 13.07770098 -5.10571289 10.74243164 C-5.1018457 10.03989258 -5.09797852 9.33735352 -5.09399414 8.61352539 C-5.09786133 7.91098633 -5.10172852 7.20844727 -5.10571289 6.48461914 C-5.09349915 0.14568968 -5.09349915 0.14568968 0 0 Z " fill="#898691" transform="translate(291.968994140625,225.886474609375)"/>
<path d="M0 0 C0.33 0 0.66 0 1 0 C1.19430855 2.6246601 1.38073238 5.24946765 1.5625 7.875 C1.61857422 8.62136719 1.67464844 9.36773437 1.73242188 10.13671875 C2.11328125 15.7734375 2.11328125 15.7734375 1 18 C0.8932301 20.01973067 0.81498529 22.04099345 0.75 24.0625 C0.01391917 35.59047563 -3.89943034 46.28096703 -8 57 C-8.99 57 -9.98 57 -11 57 C-10.74476563 56.06994141 -10.74476563 56.06994141 -10.484375 55.12109375 C-9.95979547 53.20414623 -9.4394291 51.28604373 -8.921875 49.3671875 C-8.30581611 47.1170063 -7.67025872 44.87207547 -7.015625 42.6328125 C-3.06415909 28.74189003 -0.95819933 14.40603137 0 0 Z " fill="#55378E" transform="translate(485,300)"/>
<path d="M0 0 C0.33 0 0.66 0 1 0 C1.96648972 7.31439422 2.19272336 14.50065984 2.1875 21.875 C2.18669434 23.06013184 2.18588867 24.24526367 2.18505859 25.46630859 C2.09470058 38.5717639 1.03196921 51.24340809 -2 64 C-2.33 64 -2.66 64 -3 64 C-3.19441368 61.7089095 -3.38033135 59.41709663 -3.5625 57.125 C-3.71912109 55.21074219 -3.71912109 55.21074219 -3.87890625 53.2578125 C-4 50 -4 50 -3 48 C-2.34 48 -1.68 48 -1 48 C-0.67 32.16 -0.34 16.32 0 0 Z " fill="#442C74" transform="translate(501,268)"/>
<path d="M0 0 C-0.99 0 -1.98 0 -3 0 C-3 0.66 -3 1.32 -3 2 C-4.65 1.67 -6.3 1.34 -8 1 C-8 6.61 -8 12.22 -8 18 C-7.34 18 -6.68 18 -6 18 C-5.67 20.31 -5.34 22.62 -5 25 C-4.34 25 -3.68 25 -3 25 C-2.67 24.34 -2.34 23.68 -2 23 C-1.67 24.65 -1.34 26.3 -1 28 C-0.34 28 0.32 28 1 28 C1.33 29.98 1.66 31.96 2 34 C1.01 34.66 0.02 35.32 -1 36 C-1 35.34 -1 34.68 -1 34 C-2.32 34 -3.64 34 -5 34 C-5.48509793 32.62708132 -5.96275513 31.25153297 -6.4375 29.875 C-6.70433594 29.10929687 -6.97117188 28.34359375 -7.24609375 27.5546875 C-9.06419075 21.39388212 -9.1248051 15.48970597 -9.0625 9.125 C-9.05798828 8.24585938 -9.05347656 7.36671875 -9.04882812 6.4609375 C-9.03712337 4.30726197 -9.01919069 2.15362183 -9 0 C-5.59254812 -0.76286236 -3.35001838 -1.11667279 0 0 Z " fill="#8768B3" transform="translate(158,237)"/>
<path d="M0 0 C0.99 0 1.98 0 3 0 C-2.18578318 13.90283775 -13.32148682 26.89209786 -23 38 C-23.33 38 -23.66 38 -24 38 C-24.125 35.625 -24.125 35.625 -24 33 C-23.34 32.34 -22.68 31.68 -22 31 C-21.01 31 -20.02 31 -19 31 C-18.938125 30.29875 -18.87625 29.5975 -18.8125 28.875 C-17.69219429 24.91084133 -15.83933474 22.97783887 -13 20 C-12.34 20 -11.68 20 -11 20 C-11 19.01 -11 18.02 -11 17 C-10.34 17 -9.68 17 -9 17 C-9 16.34 -9 15.68 -9 15 C-8.34 15 -7.68 15 -7 15 C-6.67 13.35 -6.34 11.7 -6 10 C-5.34 10 -4.68 10 -4 10 C-4 8.68 -4 7.36 -4 6 C-3.34 6 -2.68 6 -2 6 C-1.855625 5.38125 -1.71125 4.7625 -1.5625 4.125 C-1 2 -1 2 0 0 Z " fill="#4D3585" transform="translate(475,388)"/>
<path d="M0 0 C0.99 0.33 1.98 0.66 3 1 C-4.42043551 10.48166759 -15.03732363 19.79131843 -26 25 C-26.99 24.67 -27.98 24.34 -29 24 C-29 23.34 -29 22.68 -29 22 C-27.35 22 -25.7 22 -24 22 C-24 21.34 -24 20.68 -24 20 C-23.01 20 -22.02 20 -21 20 C-20.67 19.01 -20.34 18.02 -20 17 C-19.34 17 -18.68 17 -18 17 C-17.67 16.01 -17.34 15.02 -17 14 C-15.68352881 13.30062468 -14.34977849 12.63270867 -13 12 C-12.67 11.34 -12.34 10.68 -12 10 C-7.5 7 -7.5 7 -5 7 C-4.34 5.35 -3.68 3.7 -3 2 C-2.01 2 -1.02 2 0 2 C0 1.34 0 0.68 0 0 Z " fill="#4E3488" transform="translate(389,390)"/>
<path d="M0 0 C0.99 0.495 0.99 0.495 2 1 C2 1.66 2 2.32 2 3 C2.515625 3.103125 3.03125 3.20625 3.5625 3.3125 C6.93551924 4.2638644 9.8942137 5.35920724 13 7 C13.6875 9.5 13.6875 9.5 14 12 C15.0209375 12.61875 15.0209375 12.61875 16.0625 13.25 C18 15 18 15 18.26171875 17.18359375 C18.25102939 19.46755427 18.17186365 21.72280659 18 24 C17.67 24 17.34 24 17 24 C17 21.36 17 18.72 17 16 C16.46890625 15.76539063 15.9378125 15.53078125 15.390625 15.2890625 C12.28168889 13.61267538 9.54629674 11.51536585 6.75 9.375 C4.8525 7.93125 2.955 6.4875 1 5 C1.33 13.91 1.66 22.82 2 32 C1.67 32 1.34 32 1 32 C-0.22399452 25.35958878 -0.11227753 18.79778303 -0.0625 12.0625 C-0.05798828 10.90169922 -0.05347656 9.74089844 -0.04882812 8.54492188 C-0.03710647 5.69656066 -0.0206976 2.84830778 0 0 Z " fill="#9E8BB3" transform="translate(163,283)"/>
<path d="M0 0 C0.598125 0.20625 1.19625 0.4125 1.8125 0.625 C-6.16721781 7.62229024 -14.96998593 13.0269092 -24.09521484 18.38867188 C-25.4702601 19.20118403 -26.83568088 20.03025135 -28.18994141 20.87695312 C-29.81152982 21.86922397 -31.49605071 22.75715802 -33.1875 23.625 C-34.1775 23.295 -35.1675 22.965 -36.1875 22.625 C-35.548125 22.33625 -34.90875 22.0475 -34.25 21.75 C-32.03543921 20.79676549 -32.03543921 20.79676549 -31.1875 18.625 C-30.5275 18.625 -29.8675 18.625 -29.1875 18.625 C-29.1875 17.965 -29.1875 17.305 -29.1875 16.625 C-25.4375 15.5 -25.4375 15.5 -23.1875 16.625 C-23.1875 15.635 -23.1875 14.645 -23.1875 13.625 C-22.66800781 13.38265625 -22.14851563 13.1403125 -21.61328125 12.890625 C-17.36221371 10.84759809 -13.77763962 8.72998562 -10.1875 5.625 C-2.67293689 -0.45821775 -2.67293689 -0.45821775 0 0 Z " fill="#513689" transform="translate(404.1875,429.375)"/>
<path d="M0 0 C0.99 0.33 1.98 0.66 3 1 C-0.44772503 5.86217632 -4.05345378 10.2092881 -8.34765625 14.34375 C-9.86824699 15.86793552 -11.17968283 17.42806777 -12.5 19.125 C-15.40039638 22.46045583 -18.33258948 24.55505965 -22 27 C-22 25.68 -22 24.36 -22 23 C-21.01 23 -20.02 23 -19 23 C-19 21.68 -19 20.36 -19 19 C-17.68 18.67 -16.36 18.34 -15 18 C-15 17.34 -15 16.68 -15 16 C-14.34 16 -13.68 16 -13 16 C-12.67 14.68 -12.34 13.36 -12 12 C-11.01 12 -10.02 12 -9 12 C-8.731875 11.360625 -8.46375 10.72125 -8.1875 10.0625 C-7 8 -7 8 -4 7 C-4 6.34 -4 5.68 -4 5 C-3.34 5 -2.68 5 -2 5 C-1.855625 4.360625 -1.71125 3.72125 -1.5625 3.0625 C-1 1 -1 1 0 0 Z " fill="#52388A" transform="translate(431,400)"/>
<path d="M0 0 C0 1.98 0 3.96 0 6 C-0.99 6.495 -0.99 6.495 -2 7 C-2.65555119 9.52733235 -2.65555119 9.52733235 -3 12 C-3.8353125 12.061875 -3.8353125 12.061875 -4.6875 12.125 C-8.15605198 13.43742507 -9.69850982 16.16739671 -12 19 C-12.99 19.33 -13.98 19.66 -15 20 C-16 17 -16 17 -14.875 14.5625 C-12.86525684 11.81585102 -10.65778016 10.0982475 -8 8 C-7.67 7.01 -7.34 6.02 -7 5 C-2.46511628 0 -2.46511628 0 0 0 Z " fill="#A37AD7" transform="translate(208,269)"/>
<path d="M0 0 C1.20220203 3.53094302 0.79532349 6.12898982 0.0625 9.75 C-0.13214844 10.73484375 -0.32679688 11.7196875 -0.52734375 12.734375 C-0.68332031 13.48203125 -0.83929688 14.2296875 -1 15 C-1.66 15 -2.32 15 -3 15 C-2.938125 15.928125 -2.87625 16.85625 -2.8125 17.8125 C-3 21 -3 21 -4.4296875 22.42578125 C-6.34215054 24.34300166 -6.65911507 25.77034989 -7.3125 28.375 C-8.79062264 33.24644718 -10.85590023 35.14517571 -15 38 C-15.33 37.34 -15.66 36.68 -16 36 C-14.99609375 34.109375 -14.99609375 34.109375 -13.4375 31.75 C-7.31949467 21.89873388 -3.43444069 11.03061538 0 0 Z " fill="#4F3584" transform="translate(408,327)"/>
<path d="M0 0 C0.93134766 0.00322266 1.86269531 0.00644531 2.82226562 0.00976562 C4.26182617 0.02233398 4.26182617 0.02233398 5.73046875 0.03515625 C6.70951172 0.03966797 7.68855469 0.04417969 8.69726562 0.04882812 C11.10422986 0.06056941 13.51106732 0.07699206 15.91796875 0.09765625 C15.91796875 0.42765625 15.91796875 0.75765625 15.91796875 1.09765625 C15.2130127 1.20835449 14.50805664 1.31905273 13.78173828 1.43310547 C10.53514234 1.94415849 7.28905694 2.45838835 4.04296875 2.97265625 C2.934375 3.14667969 1.82578125 3.32070312 0.68359375 3.5 C-5.93917083 4.55185084 -12.51939783 5.71829652 -19.08203125 7.09765625 C-19.08203125 6.10765625 -19.08203125 5.11765625 -19.08203125 4.09765625 C-17.68754016 3.61459725 -16.29136418 3.13640108 -14.89453125 2.66015625 C-14.11722656 2.39332031 -13.33992188 2.12648437 -12.5390625 1.8515625 C-8.31855573 0.55655804 -4.41363509 -0.02707752 0 0 Z " fill="#573B91" transform="translate(278.08203125,140.90234375)"/>
<path d="M0 0 C0 0.33 0 0.66 0 1 C-2.97 1 -5.94 1 -9 1 C-9.33 1.99 -9.66 2.98 -10 4 C-20.56 4 -31.12 4 -42 4 C-42 3.67 -42 3.34 -42 3 C-28.16327278 -0.89375238 -14.25715797 -0.30294713 0 0 Z " fill="#523687" transform="translate(319,124)"/>
<path d="M0 0 C0 0.99 0 1.98 0 3 C0.33 3.33 0.66 3.66 1 4 C1.04092937 6.33297433 1.04241723 8.66705225 1 11 C2.11375 10.79375 3.2275 10.5875 4.375 10.375 C5.57125 10.25125 6.7675 10.1275 8 10 C8.66 10.66 9.32 11.32 10 12 C7.27893306 14.72106694 5.15223689 14.60655572 1.375 15.125 C0.18648438 15.29257812 -1.00203125 15.46015625 -2.2265625 15.6328125 C-3.14179688 15.75398438 -4.05703125 15.87515625 -5 16 C-4.67773438 15.4225 -4.35546875 14.845 -4.0234375 14.25 C-2.47290697 10.84120007 -2.35245252 7.67445549 -3 4 C-4.83341465 1.49479421 -4.83341465 1.49479421 -7 0 C-2.25 -1.125 -2.25 -1.125 0 0 Z " fill="#6D529D" transform="translate(325,414)"/>
<path d="M0 0 C0 9.57 0 19.14 0 29 C-3.63053243 29 -4.95750337 27.7721745 -7.63671875 25.4453125 C-9.46347972 23.50863182 -10.27432067 21.53987766 -11 19 C-10.01 19 -9.02 19 -8 19 C-7.7525 19.763125 -7.505 20.52625 -7.25 21.3125 C-6.04375457 24.45920328 -6.04375457 24.45920328 -2 27 C-2 18.42 -2 9.84 -2 1 C-3.32 0.67 -4.64 0.34 -6 0 C-2.25 -1.125 -2.25 -1.125 0 0 Z " fill="#664D89" transform="translate(176,248)"/>
<path d="M0 0 C0.33 0.66 0.66 1.32 1 2 C3.33247761 2.33926947 5.66585471 2.67240066 8 3 C10 5 10 5 10 9 C4.65998179 10.33500455 1.16044765 9.512545 -4 8 C-3.40138258 5.64828869 -2.73075648 3.3140622 -2 1 C-1.34 0.67 -0.68 0.34 0 0 Z " fill="#A67CD7" transform="translate(181,224)"/>
<path d="M0 0 C1.22589844 0.01353516 1.22589844 0.01353516 2.4765625 0.02734375 C3.41628906 0.04474609 3.41628906 0.04474609 4.375 0.0625 C1.52630698 2.91119302 -1.9537855 3.77572394 -5.6875 5.0625 C-6.45376709 5.3301416 -7.22003418 5.5977832 -8.00952148 5.87353516 C-13.166368 7.64368983 -18.25362852 9.085887 -23.625 10.0625 C-23.34545898 8.15307617 -23.34545898 8.15307617 -22.625 6.0625 C-19.93594873 4.95769599 -17.47378949 4.12395076 -14.6875 3.375 C-13.21975577 2.95546234 -11.75229431 2.5349338 -10.28515625 2.11328125 C-9.07730469 1.76652344 -7.86945313 1.41976563 -6.625 1.0625 C-4.21954362 -0.14022819 -2.67503047 -0.03821472 0 0 Z " fill="#553A8C" transform="translate(361.625,453.9375)"/>
<path d="M0 0 C1.0326802 2.78823655 1.04509293 3.8677274 0.0625 6.75 C-0.4634375 7.86375 -0.4634375 7.86375 -1 9 C-1.66 9 -2.32 9 -3 9 C-3.04125 9.556875 -3.0825 10.11375 -3.125 10.6875 C-4.43719309 14.15543888 -7.16839957 15.68848944 -10 18 C-11.37254588 20.14980497 -11.37254588 20.14980497 -12 22 C-12.66 22 -13.32 22 -14 22 C-14 22.66 -14 23.32 -14 24 C-16.31 24.99 -18.62 25.98 -21 27 C-21.66 26.34 -22.32 25.68 -23 25 C-21.7625 24.2265625 -21.7625 24.2265625 -20.5 23.4375 C-11.49819413 17.35863345 -4.67879526 9.87998028 0 0 Z " fill="#8265A8" transform="translate(204,265)"/>
<path d="M0 0 C4.11778316 -0.24222254 7.13443193 0.63094464 11 2 C12.66088045 2.36106097 14.32618981 2.70462173 16 3 C16 3.99 16 4.98 16 6 C16.66 6 17.32 6 18 6 C18.08086376 8.93804996 18.1404283 11.87388075 18.1875 14.8125 C18.21263672 15.64587891 18.23777344 16.47925781 18.26367188 17.33789062 C18.27333984 18.14033203 18.28300781 18.94277344 18.29296875 19.76953125 C18.3086792 20.50792236 18.32438965 21.24631348 18.34057617 22.00708008 C18 24 18 24 15 27 C15.33 20.4 15.66 13.8 16 7 C13.36 6.34 10.72 5.68 8 5 C5.21479922 3.82230708 2.67175117 2.43129527 0 1 C0 0.67 0 0.34 0 0 Z " fill="#8062A8" transform="translate(190,238)"/>
<path d="M0 0 C1.65 0 3.3 0 5 0 C5 0.66 5 1.32 5 2 C2.04969159 4.74337295 -1.15155687 7.18178385 -4.31787109 9.67089844 C-6.06359586 11.05024904 -7.79161859 12.4499857 -9.51953125 13.8515625 C-10.67897918 14.77692986 -11.83912139 15.70142807 -13 16.625 C-13.82697388 17.29982422 -13.82697388 17.29982422 -14.6706543 17.98828125 C-16.25 19.2265625 -16.25 19.2265625 -19 21 C-19.99 20.67 -20.98 20.34 -22 20 C-21.67 19.34 -21.34 18.68 -21 18 C-20.01 18 -19.02 18 -18 18 C-18 17.34 -18 16.68 -18 16 C-17.01 16 -16.02 16 -15 16 C-15 15.34 -15 14.68 -15 14 C-14.34 14 -13.68 14 -13 14 C-12.67 13.01 -12.34 12.02 -12 11 C-9 9 -9 9 -6 9 C-6 8.01 -6 7.02 -6 6 C-5.34 5.34 -4.68 4.68 -4 4 C-3.01 4 -2.02 4 -1 4 C-0.67 2.68 -0.34 1.36 0 0 Z " fill="#4C3485" transform="translate(434,438)"/>
<path d="M0 0 C0.495 1.485 0.495 1.485 1 3 C0.08476562 3.42152344 -0.83046875 3.84304688 -1.7734375 4.27734375 C-2.96195312 4.82519531 -4.15046875 5.37304688 -5.375 5.9375 C-6.55835938 6.48277344 -7.74171875 7.02804687 -8.9609375 7.58984375 C-10.6499011 8.37354023 -12.33464041 9.1673202 -14 10 C-15.72492753 10.2059615 -17.45547891 10.3662163 -19.1875 10.5 C-23.49304791 10.85690726 -27.73199961 11.33608883 -32 12 C-28.6371353 9.7580902 -25.32933468 8.80146403 -21.5 7.6875 C-15.42929144 5.86958897 -9.74106967 3.71729251 -4.0390625 0.91796875 C-2 0 -2 0 0 0 Z " fill="#503486" transform="translate(351,402)"/>
<path d="M0 0 C2.31 0.33 4.62 0.66 7 1 C7 1.33 7 1.66 7 2 C5.35 2.33 3.7 2.66 2 3 C2 10.26 2 17.52 2 25 C2.99 25.33 3.98 25.66 5 26 C4.67 25.01 4.34 24.02 4 23 C5.40445835 20.7363436 7.1967913 18.9791315 9 17 C9.99 17.33 10.98 17.66 12 18 C11.34 18 10.68 18 10 18 C9.773125 18.886875 9.54625 19.77375 9.3125 20.6875 C7.80889801 24.48230501 6.08494714 26.36650854 3 29 C2.01 29.33 1.02 29.66 0 30 C0 20.1 0 10.2 0 0 Z " fill="#755898" transform="translate(189,248)"/>
<path d="M0 0 C0 3.68553144 -0.8522582 5.03759752 -3 8 C-3.804375 8.474375 -4.60875 8.94875 -5.4375 9.4375 C-8.68829002 11.41968904 -9.93258333 13.83426823 -12 17 C-14.75459978 19.4791398 -17.48146009 21.75148584 -21 23 C-22.34353414 22.71050922 -23.67965718 22.38155437 -25 22 C-24.28457031 21.50113281 -23.56914062 21.00226563 -22.83203125 20.48828125 C-14.38629359 14.40254273 -7.19420387 7.50749984 0 0 Z " fill="#482F7E" transform="translate(384,374)"/>
<path d="M0 0 C-8.96921129 5.19471212 -22.90923279 3.28636943 -32.9921875 3.51757812 C-34.09820312 3.55173828 -35.20421875 3.58589844 -36.34375 3.62109375 C-37.33568359 3.6461499 -38.32761719 3.67120605 -39.34960938 3.69702148 C-42.02007106 4.00229442 -43.70544409 4.63939367 -46 6 C-46 8.31 -46 10.62 -46 13 C-46.66 12.34 -47.32 11.68 -48 11 C-47.80834768 7.99744697 -47.58516388 5.80036683 -45.78515625 3.33837891 C-43.34672422 1.51022185 -41.65517071 1.58588907 -38.625 1.5234375 C-37.55636719 1.4925 -36.48773438 1.4615625 -35.38671875 1.4296875 C-33.71029297 1.40261719 -33.71029297 1.40261719 -32 1.375 C-29.81243208 1.32310041 -27.62492801 1.26843262 -25.4375 1.2109375 C-24.36411377 1.18346436 -23.29072754 1.15599121 -22.18481445 1.12768555 C-18.24043671 0.9695476 -14.3323061 0.62166721 -10.40698242 0.21166992 C-6.92495956 -0.09453901 -3.49320606 -0.06590955 0 0 Z " fill="#482F79" transform="translate(331,476)"/>
<path d="M0 0 C0.33 0 0.66 0 1 0 C1.66763335 7.67778349 -0.81932519 14.5929512 -5.625 20.625 C-6.40875 21.40875 -7.1925 22.1925 -8 23 C-8.66 23 -9.32 23 -10 23 C-10 23.99 -10 24.98 -10 26 C-10.66 26 -11.32 26 -12 26 C-10.66275093 22.57094969 -9.20576754 19.23769371 -7.6171875 15.91796875 C-7.17246094 14.98662109 -6.72773438 14.05527344 -6.26953125 13.09570312 C-5.80933594 12.13599609 -5.34914063 11.17628906 -4.875 10.1875 C-4.40707031 9.20845703 -3.93914062 8.22941406 -3.45703125 7.22070312 C-2.30609188 4.81312587 -1.15370472 2.40625301 0 0 Z " fill="#4C3285" transform="translate(471,363)"/>
<path d="M0 0 C1.32 0.33 2.64 0.66 4 1 C-0.69576257 7.63505153 -5.50374569 14.00564764 -11 20 C-11.33 18.68 -11.66 17.36 -12 16 C-11.360625 15.7525 -10.72125 15.505 -10.0625 15.25 C-7.85101127 14.22926762 -7.85101127 14.22926762 -7.5 12.25 C-7.335 11.5075 -7.17 10.765 -7 10 C-5.0625 6.75 -5.0625 6.75 -3 4 C-2.34 4 -1.68 4 -1 4 C-0.67 2.68 -0.34 1.36 0 0 Z " fill="#52388B" transform="translate(404,371)"/>
<path d="M0 0 C0.33 0 0.66 0 1 0 C0.67 2.31 0.34 4.62 0 7 C-0.99 7.33 -1.98 7.66 -3 8 C-3 9.32 -3 10.64 -3 12 C-3.66 12 -4.32 12 -5 12 C-5.28875 12.763125 -5.5775 13.52625 -5.875 14.3125 C-7 17 -7 17 -9 20 C-11.625 20.6875 -11.625 20.6875 -14 21 C-12.62199272 18.93298908 -11.24356868 16.86627103 -9.86328125 14.80078125 C-8.52026575 12.78203468 -7.18530376 10.75792212 -5.85546875 8.73046875 C-5.14003906 7.64378906 -4.42460937 6.55710937 -3.6875 5.4375 C-3.01074219 4.40496094 -2.33398438 3.37242187 -1.63671875 2.30859375 C-1.09660156 1.54675781 -0.55648438 0.78492188 0 0 Z " fill="#4F3587" transform="translate(458,389)"/>
<path d="M0 0 C0.99 0.33 1.98 0.66 3 1 C-2.26735775 7.40624592 -8.09998289 13.18674785 -14 19 C-14.66 19.66 -15.32 20.32 -16 21 C-16.6875 19.1875 -16.6875 19.1875 -17 17 C-15.75 15.25 -15.75 15.25 -14 14 C-13.01 14 -12.02 14 -11 14 C-11 13.01 -11 12.02 -11 11 C-10.01 11 -9.02 11 -8 11 C-7.67 9.68 -7.34 8.36 -7 7 C-6.01 7 -5.02 7 -4 7 C-3.896875 6.401875 -3.79375 5.80375 -3.6875 5.1875 C-2.91123545 2.71756736 -1.92911079 1.67748765 0 0 Z " fill="#4C3282" transform="translate(203,177)"/>
<path d="M0 0 C0.66 0.33 1.32 0.66 2 1 C1.26418258 2.1549921 0.51069961 3.29874185 -0.25 4.4375 C-0.66765625 5.07558594 -1.0853125 5.71367187 -1.515625 6.37109375 C-3.29504152 8.32376925 -4.49919115 8.38513171 -7 9 C-7.33 9.99 -7.66 10.98 -8 12 C-11.76089192 15.65027746 -15.03003399 16.83059623 -20 18 C-16.11432772 13.99568124 -12.00723978 10.35363866 -7.75 6.75 C-3.78126563 3.47628175 -3.78126563 3.47628175 0 0 Z " fill="#4C3282" transform="translate(426,428)"/>
<path d="M0 0 C0.99 0 1.98 0 3 0 C3 0.99 3 1.98 3 3 C5.31 3.33 7.62 3.66 10 4 C10.165 4.763125 10.33 5.52625 10.5 6.3125 C12.69479908 10.24484835 15.8222367 10.80496538 20 12 C19.67 12.99 19.34 13.98 19 15 C14.03657693 13.40013936 10.29801238 10.47460168 6.1875 7.375 C5.49462891 6.859375 4.80175781 6.34375 4.08789062 5.8125 C2.38826337 4.54657074 0.69362565 3.27394735 -1 2 C-0.67 1.34 -0.34 0.68 0 0 Z " fill="#785EA0" transform="translate(192,428)"/>
<path d="M0 0 C0.6875 1.6875 0.6875 1.6875 1 4 C-0.3125 6.75 -0.3125 6.75 -2 9 C-2.66 9 -3.32 9 -4 9 C-4.0825 9.94875 -4.165 10.8975 -4.25 11.875 C-4.4975 12.90625 -4.745 13.9375 -5 15 C-7 16 -7 16 -9 17 C-10.26715017 19.27341648 -11.09150096 21.5470526 -12 24 C-12.99 23.67 -13.98 23.34 -15 23 C-13.23050136 18.99113585 -10.6325524 15.58195126 -8.0625 12.0625 C-5.19637986 8.1283642 -2.42998883 4.22641621 0 0 Z " fill="#4F3586" transform="translate(431,373)"/>
<path d="M0 0 C0.33 0 0.66 0 1 0 C1.22615016 6.16259181 0.44149898 11.51972719 -1 17.5 C-1.19078125 18.32242187 -1.3815625 19.14484375 -1.578125 19.9921875 C-2.04427304 21.99662407 -2.52102976 23.99858863 -3 26 C-3.33 26 -3.66 26 -4 26 C-4.02725341 24.2709226 -4.04650987 22.54171824 -4.0625 20.8125 C-4.07410156 19.84957031 -4.08570313 18.88664062 -4.09765625 17.89453125 C-4.00486622 15.14423487 -3.62111685 12.67520409 -3 10 C-2.34 10 -1.68 10 -1 10 C-1 8.68 -1 7.36 -1 6 C-1.99 5.67 -2.98 5.34 -4 5 C-2.69254251 3.31295807 -1.35827971 1.64639965 0 0 Z " fill="#543B83" transform="translate(428,308)"/>
<path d="M0 0 C2.31 0 4.62 0 7 0 C4.51106696 2.48893304 2.30799927 3.11491064 -1 4.3125 C-6.22638712 6.26151895 -11.15220155 8.46393699 -16.07421875 11.08203125 C-18 12 -18 12 -20 12 C-19.67 10.68 -19.34 9.36 -19 8 C-17.35 8 -15.7 8 -14 8 C-14 7.34 -14 6.68 -14 6 C-12.68 6 -11.36 6 -10 6 C-10 5.34 -10 4.68 -10 4 C-8.02 4 -6.04 4 -4 4 C-4 3.34 -4 2.68 -4 2 C-2.68 2 -1.36 2 0 2 C0 1.34 0 0.68 0 0 Z " fill="#4A317E" transform="translate(252,148)"/>
<path d="M0 0 C2 1 2 1 3.125 3.1875 C4.08328236 6.26769331 4.14915816 8.79309948 4 12 C4.66 12 5.32 12 6 12 C8.63096039 18.48343811 9.39325819 24.02330843 9 31 C6.27244096 25.94274426 4.96240984 20.43213204 3.375 14.9375 C2.88773437 13.28524414 2.88773437 13.28524414 2.390625 11.59960938 C2.08382813 10.54451172 1.77703125 9.48941406 1.4609375 8.40234375 C1.18040527 7.43804443 0.89987305 6.47374512 0.61083984 5.48022461 C0 3 0 3 0 0 Z " fill="#4D347E" transform="translate(473,221)"/>
<path d="M0 0 C0.33 0 0.66 0 1 0 C1.19350491 4.57107542 1.37201718 9.14240967 1.53710938 13.71459961 C1.59523985 15.26749064 1.65734981 16.82023832 1.72363281 18.37280273 C1.81861145 20.61415469 1.89891073 22.85564495 1.9765625 25.09765625 C2.00875885 25.78336197 2.0409552 26.46906769 2.0741272 27.17555237 C2.27220001 33.65781407 0.50445387 39.09664444 -2 45 C-3.00720736 41.85811434 -2.92694544 39.92953212 -2.1015625 36.7578125 C-0.52296532 29.53340893 -0.53728569 22.23533213 -0.375 14.875 C-0.33672566 13.42706228 -0.29766882 11.97914503 -0.2578125 10.53125 C-0.16286386 7.02102298 -0.07846785 3.51063868 0 0 Z " fill="#51456C" transform="translate(412,282)"/>
<path d="M0 0 C2.83468759 2.83468759 3.20346386 6.14315204 4.0625 9.9375 C4.2387793 10.69861084 4.41505859 11.45972168 4.59667969 12.24389648 C5.91364501 18.13476451 6.73918903 23.96222614 7 30 C3.4317767 24.64766505 2.67334691 18.36973531 3 12 C2.01 11.67 1.02 11.34 0 11 C-0.84098656 6.98195309 -1.05404945 3.98196457 0 0 Z " fill="#472D7A" transform="translate(494,235)"/>
<path d="M0 0 C3.27227431 3.70594922 4.64472288 7.91015426 6.25 12.5 C6.53101563 13.25925781 6.81203125 14.01851562 7.1015625 14.80078125 C7.36195313 15.53683594 7.62234375 16.27289063 7.890625 17.03125 C8.12813477 17.69705078 8.36564453 18.36285156 8.61035156 19.04882812 C9.06705347 21.3357715 8.71402646 22.80280709 8 25 C5.96564469 21.27034861 5 19.33094958 5 15 C4.34 15 3.68 15 3 15 C2.491217 13.44033782 1.99336531 11.87710759 1.5 10.3125 C1.2215625 9.44238281 0.943125 8.57226562 0.65625 7.67578125 C0.00149195 5.00608323 -0.11831495 2.73603316 0 0 Z " fill="#4D3381" transform="translate(455,225)"/>
<path d="M0 0 C0 0.66 0 1.32 0 2 C0.66 1.67 1.32 1.34 2 1 C7.60647917 0.56027614 11.14239573 1.3768937 16 4 C16.33 4.99 16.66 5.98 17 7 C15.15535156 6.58427734 15.15535156 6.58427734 13.2734375 6.16015625 C11.64064416 5.79418533 10.00783059 5.42830468 8.375 5.0625 C7.56675781 4.88009766 6.75851562 4.69769531 5.92578125 4.50976562 C1.63101819 3.54955437 -2.64777849 2.66903081 -7 2 C-7 1.67 -7 1.34 -7 1 C-2.25 0 -2.25 0 0 0 Z " fill="#745C9D" transform="translate(331,141)"/>
<path d="M0 0 C0.33 0 0.66 0 1 0 C0.50596529 9.05730307 -2.32226777 17.39370934 -5 26 C-5.33 26 -5.66 26 -6 26 C-6 22.37 -6 18.74 -6 15 C-5.34 14.67 -4.68 14.34 -4 14 C-3.39734195 11.85465269 -2.89047375 9.6818631 -2.4375 7.5 C-1.09353508 1.09353508 -1.09353508 1.09353508 0 0 Z " fill="#4D3381" transform="translate(497,332)"/>
<path d="M0 0 C0.66 0.33 1.32 0.66 2 1 C1.96519531 1.90621094 1.93039063 2.81242188 1.89453125 3.74609375 C1.69761916 12.60713791 1.70416887 21.1045659 8 28 C7.67 28.66 7.34 29.32 7 30 C5.0625 29.4375 5.0625 29.4375 3 28 C2.25 24.375 2.25 24.375 2 21 C1.34 21 0.68 21 0 21 C-0.99440216 16.2710653 -0.96565891 11.90729882 -0.5625 7.125 C-0.51029297 6.43664062 -0.45808594 5.74828125 -0.40429688 5.0390625 C-0.27594902 3.35887242 -0.13887775 1.67935251 0 0 Z " fill="#6B5392" transform="translate(157,244)"/>
<path d="M0 0 C-1.9137069 1.46236093 -3.83075233 2.91994246 -5.75 4.375 C-6.55824219 4.99375 -6.55824219 4.99375 -7.3828125 5.625 C-10.14944813 7.71684645 -12.8209088 9.59564418 -16 11 C-16.33 10.01 -16.66 9.02 -17 8 C-16.01 8 -15.02 8 -14 8 C-13.7525 7.401875 -13.505 6.80375 -13.25 6.1875 C-10.37605725 1.15810019 -5.5432238 -1.61677361 0 0 Z " fill="#4F3686" transform="translate(222,167)"/>
<path d="M0 0 C0.66 0.33 1.32 0.66 2 1 C-2.3802282 6.47528525 -8.32932405 9.07311974 -15 11 C-17.17749023 10.55126953 -17.17749023 10.55126953 -19 10 C-17.87980469 9.44570313 -16.75960938 8.89140625 -15.60546875 8.3203125 C-14.13275962 7.58864809 -12.66010628 6.85687139 -11.1875 6.125 C-10.44951172 5.76019531 -9.71152344 5.39539063 -8.95117188 5.01953125 C-8.23896484 4.66503906 -7.52675781 4.31054688 -6.79296875 3.9453125 C-6.1383667 3.62062988 -5.48376465 3.29594727 -4.80932617 2.96142578 C-2.75347202 1.90744328 -2.75347202 1.90744328 0 0 Z " fill="#4B317E" transform="translate(396,451)"/>
<path d="M0 0 C-3.18377293 3.47031249 -6.73936368 4.90776757 -11 6.75 C-11.72445313 7.07871094 -12.44890625 7.40742188 -13.1953125 7.74609375 C-18.63106045 10.12297985 -18.63106045 10.12297985 -22 9 C-20.13497412 6.37200898 -18.69589209 5.13634249 -15.5078125 4.51171875 C-13.0035728 4.27406427 -10.51346021 4.0959336 -8 4 C-8 3.34 -8 2.68 -8 2 C-4.77208445 -0.1519437 -3.71599191 -0.20086443 0 0 Z " fill="#4A327C" transform="translate(394,470)"/>
<path d="M0 0 C0.33 0.99 0.66 1.98 1 3 C-1.72962049 8.23177261 -5.09790945 10.79478695 -10 14 C-10.66 13.67 -11.32 13.34 -12 13 C-10.18777319 11.02058257 -8.37523172 9.04145495 -6.5625 7.0625 C-6.04623047 6.49853516 -5.52996094 5.93457031 -4.99804688 5.35351562 C-1.11328125 1.11328125 -1.11328125 1.11328125 0 0 Z " fill="#593A96" transform="translate(187,172)"/>
<path d="M0 0 C3.36720387 1.39332574 4.9859524 2.9789286 7 6 C3.87709365 5.51421457 1.00419641 5.0013988 -2 4 C-2.226875 4.639375 -2.45375 5.27875 -2.6875 5.9375 C-4 8 -4 8 -6.625 8.75 C-7.40875 8.8325 -8.1925 8.915 -9 9 C-6 6 -3 3 0 0 Z " fill="#8065A5" transform="translate(181,221)"/>
<path d="M0 0 C3.44057094 3.15320949 5.89674158 6.66792588 8.3125 10.625 C8.68439453 11.21023437 9.05628906 11.79546875 9.43945312 12.3984375 C10.35989729 13.89308798 11.18825721 15.44363527 12 17 C11.67 17.66 11.34 18.32 11 19 C10.34 19 9.68 19 9 19 C6.19505399 15.34507035 4.772095 12.50388749 4 8 C3.34 7.67 2.68 7.34 2 7 C1.26924352 4.6859378 0.59861742 2.35171131 0 0 Z " fill="#4C3383" transform="translate(436,192)"/>
<path d="M0 0 C3.3 0.33 6.6 0.66 10 1 C6.49386053 3.6296046 4.77681984 4.5748261 0.75 5.6875 C-0.14203125 5.93886719 -1.0340625 6.19023437 -1.953125 6.44921875 C-2.62859375 6.63097656 -3.3040625 6.81273437 -4 7 C-2.68 4.69 -1.36 2.38 0 0 Z " fill="#8162A9" transform="translate(164,237)"/>
<path d="M0 0 C1 2 1 2 0.47094727 3.78759766 C0.17244873 4.48933105 -0.1260498 5.19106445 -0.43359375 5.9140625 C-0.75263672 6.67460937 -1.07167969 7.43515625 -1.40039062 8.21875 C-1.74263672 9.0128125 -2.08488281 9.806875 -2.4375 10.625 C-2.77587891 11.42679687 -3.11425781 12.22859375 -3.46289062 13.0546875 C-4.30166778 15.03939964 -5.14995245 17.02008875 -6 19 C-6.66 17.68 -7.32 16.36 -8 15 C-7.67 15 -7.34 15 -7 15 C-6.773125 13.824375 -6.54625 12.64875 -6.3125 11.4375 C-5.16992391 6.75877601 -2.96959263 3.75106438 0 0 Z " fill="#4D3381" transform="translate(461,347)"/>
<path d="M0 0 C0.99 0 1.98 0 3 0 C3 1.98 3 3.96 3 6 C3.99 6.33 4.98 6.66 6 7 C7.35439668 9.70879335 7.06501451 12.00933268 7 15 C3.55131413 10.91266859 0.76206846 6.56194093 -2 2 C-1.34 1.34 -0.68 0.68 0 0 Z " fill="#503284" transform="translate(423,198)"/>
<path d="M0 0 C1 2 1 2 0.25 4.4375 C-0.94131051 6.87968654 -1.88488303 8.3255324 -4 10 C-4.66 10 -5.32 10 -6 10 C-6 12.97 -6 15.94 -6 19 C-8 17 -8 17 -8.375 14.2421875 C-7.90559675 10.18380521 -6.49743513 8.32483876 -4 5.125 C-3.2575 4.15820312 -2.515 3.19140625 -1.75 2.1953125 C-1.1725 1.47085938 -0.595 0.74640625 0 0 Z " fill="#4B317D" transform="translate(174,186)"/>
<path d="M0 0 C0 3.73869249 -0.90485692 4.36550705 -3.375 7.0625 C-4.31472656 8.10083984 -4.31472656 8.10083984 -5.2734375 9.16015625 C-6.49397067 10.46076965 -7.73879097 11.73879097 -9 13 C-10.32 12.67 -11.64 12.34 -13 12 C-8.71 8.04 -4.42 4.08 0 0 Z " fill="#533787" transform="translate(409,403)"/>
<path d="M0 0 C0.59425781 0.19335938 1.18851563 0.38671875 1.80078125 0.5859375 C8.13972563 2.57733216 14.44364086 3.94051231 21 5 C21 7.31 21 9.62 21 12 C20.67 12 20.34 12 20 12 C20 10.02 20 8.04 20 6 C18.89140625 5.97421875 17.7828125 5.9484375 16.640625 5.921875 C15.17704453 5.86558344 13.71350438 5.80823633 12.25 5.75 C11.52039063 5.73582031 10.79078125 5.72164062 10.0390625 5.70703125 C6.4182797 5.54245021 4.36677391 5.28931855 1.484375 3.015625 C0 1 0 1 0 0 Z " fill="#6E5294" transform="translate(195,232)"/>
<path d="M0 0 C1.485 0.99 1.485 0.99 3 2 C3 3.32 3 4.64 3 6 C4.32 6 5.64 6 7 6 C7 6.66 7 7.32 7 8 C7.66 8 8.32 8 9 8 C9.33 8.99 9.66 9.98 10 11 C2.12227074 8.49344978 2.12227074 8.49344978 0 7 C-0.93580311 4.12060581 -1.37245106 2.74490212 0 0 Z " fill="#A574D9" transform="translate(165,279)"/>
<path d="M0 0 C0 0.99 0 1.98 0 3 C-1.57421875 4.5 -1.57421875 4.5 -3.6875 6 C-4.78191406 6.77730469 -4.78191406 6.77730469 -5.8984375 7.5703125 C-12.40983607 12 -12.40983607 12 -16 12 C-14.41856529 10.56041153 -12.83477221 9.12341355 -11.25 7.6875 C-10.36828125 6.88699219 -9.4865625 6.08648437 -8.578125 5.26171875 C-2.58031088 0 -2.58031088 0 0 0 Z " fill="#452B74" transform="translate(207,156)"/>
<path d="M0 0 C-0.639375 0.103125 -1.27875 0.20625 -1.9375 0.3125 C-2.618125 0.539375 -3.29875 0.76625 -4 1 C-4.33 1.99 -4.66 2.98 -5 4 C-9.96073422 5.32286246 -14.91111512 5.08893197 -20 5 C-16.44536741 3.02619647 -12.77184922 1.93925077 -8.875 0.8125 C-7.01488281 0.26529297 -7.01488281 0.26529297 -5.1171875 -0.29296875 C-2 -1 -2 -1 0 0 Z " fill="#4C3082" transform="translate(361,469)"/>
<path d="M0 0 C0.66 0.33 1.32 0.66 2 1 C-1.84380901 6.01243959 -5.3373174 9.1686587 -11 12 C-11.66 11.34 -12.32 10.68 -13 10 C-11.71802734 9.04287109 -11.71802734 9.04287109 -10.41015625 8.06640625 C-9.29423934 7.23181293 -8.17835564 6.39717522 -7.0625 5.5625 C-6.21655273 4.93118164 -6.21655273 4.93118164 -5.35351562 4.28710938 C-2.57122778 2.26901433 -2.57122778 2.26901433 0 0 Z " fill="#4E3483" transform="translate(394,416)"/>
<path d="M0 0 C9.59453303 3.85421412 9.59453303 3.85421412 13 8 C11.35 8.66 9.7 9.32 8 10 C7.34 8.35 6.68 6.7 6 5 C5.34 5 4.68 5 4 5 C4 4.34 4 3.68 4 3 C2.68 3 1.36 3 0 3 C0 2.01 0 1.02 0 0 Z " fill="#A177D2" transform="translate(168,282)"/>
<path d="M0 0 C0.99 0.66 1.98 1.32 3 2 C0.36 4.97 -2.28 7.94 -5 11 C-5.66 10.01 -6.32 9.02 -7 8 C-4.69 5.36 -2.38 2.72 0 0 Z " fill="#8264AD" transform="translate(202,280)"/>
<path d="M0 0 C-0.66 0.66 -1.32 1.32 -2 2 C-2.99 2 -3.98 2 -5 2 C-5 2.66 -5 3.32 -5 4 C-6.41199578 4.39222105 -7.82992764 4.76311059 -9.25 5.125 C-10.03890625 5.33382813 -10.8278125 5.54265625 -11.640625 5.7578125 C-14.4203071 6.04314411 -15.65887549 5.44977894 -18 4 C-15.37764986 3.13683464 -12.75266548 2.28419221 -10.125 1.4375 C-9.37863281 1.19064453 -8.63226563 0.94378906 -7.86328125 0.68945312 C-2.2265625 -1.11328125 -2.2265625 -1.11328125 0 0 Z " fill="#563B89" transform="translate(352,443)"/>
<path d="M0 0 C0.99 0.66 1.98 1.32 3 2 C1.5129879 6.59621922 -0.79812128 9.46972347 -4 13 C-4.33 13 -4.66 13 -5 13 C-5 11.35 -5 9.7 -5 8 C-4.01 7.67 -3.02 7.34 -2 7 C-2 5.68 -2 4.36 -2 3 C-1.34 3 -0.68 3 0 3 C0 2.01 0 1.02 0 0 Z " fill="#503589" transform="translate(439,387)"/>
<path d="M0 0 C1.3899418 3.86094944 0.88634256 7.04554859 0 11 C-1.9375 14.4375 -1.9375 14.4375 -4 17 C-4.66 17 -5.32 17 -6 17 C-4.33846988 11.14340094 -2.52958084 5.5409866 0 0 Z " fill="#482E7D" transform="translate(444,343)"/>
<path d="M0 0 C0.99 0.33 1.98 0.66 3 1 C-0.38872633 4.58806317 -3.76141332 7.45684799 -8 10 C-8.66 10 -9.32 10 -10 10 C-10 8.68 -10 7.36 -10 6 C-6.535 5.505 -6.535 5.505 -3 5 C-2.67 4.01 -2.34 3.02 -2 2 C-1.34 2 -0.68 2 0 2 C0 1.34 0 0.68 0 0 Z " fill="#7F63A6" transform="translate(191,291)"/>
<path d="M0 0 C3.96 0.33 7.92 0.66 12 1 C12.33 2.65 12.66 4.3 13 6 C11.58034858 5.57228451 10.1643776 5.13234457 8.75 4.6875 C7.96109375 4.44386719 7.1721875 4.20023437 6.359375 3.94921875 C4 3 4 3 0 0 Z " fill="#76599E" transform="translate(225,451)"/>
<path d="M0 0 C1.32 0.33 2.64 0.66 4 1 C2.38150935 2.83946539 0.75581169 4.67151417 -0.875 6.5 C-1.33519531 7.02464844 -1.79539062 7.54929687 -2.26953125 8.08984375 C-3.47172076 9.43141755 -4.73245946 10.71999185 -6 12 C-6.66 12 -7.32 12 -8 12 C-8 10.68 -8 9.36 -8 8 C-6.68 8 -5.36 8 -4 8 C-4 7.01 -4 6.02 -4 5 C-3.01 5 -2.02 5 -1 5 C-0.67 3.35 -0.34 1.7 0 0 Z " fill="#49327E" transform="translate(447,426)"/>
<path d="M0 0 C0.33 0.66 0.66 1.32 1 2 C-1.03938643 6.58861947 -4.70695605 10.40465979 -9 13 C-9.99 12.67 -10.98 12.34 -12 12 C-8.04 8.04 -4.08 4.08 0 0 Z " fill="#BDBAC1" transform="translate(167,145)"/>
<path d="M0 0 C0 0.33 0 0.66 0 1 C-3.24801825 1.53373082 -6.49861491 2.04971268 -9.75 2.5625 C-10.67039062 2.71396484 -11.59078125 2.86542969 -12.5390625 3.02148438 C-13.87324219 3.2293457 -13.87324219 3.2293457 -15.234375 3.44140625 C-16.45979004 3.63778687 -16.45979004 3.63778687 -17.70996094 3.83813477 C-20.06110207 4.00431883 -21.76426496 3.70259545 -24 3 C-16.19436658 -0.90281671 -8.51207047 -0.27891493 0 0 Z " fill="#462F77" transform="translate(294,141)"/>
<path d="M0 0 C-0.33 0.99 -0.66 1.98 -1 3 C-5.75016635 5.2012966 -9.88081854 5.1765235 -15 5 C-12.30932731 3.20621821 -9.91421743 2.02686042 -6.9375 0.8125 C-5.62072266 0.26529297 -5.62072266 0.26529297 -4.27734375 -0.29296875 C-2 -1 -2 -1 0 0 Z " fill="#4E3486" transform="translate(377,463)"/>
<path d="M0 0 C0.99 0.495 0.99 0.495 2 1 C2 1.66 2 2.32 2 3 C5.96 3 9.92 3 14 3 C11.65828261 5.34171739 10.76939546 5.391923 7.5625 5.75 C6.38880859 5.89695312 6.38880859 5.89695312 5.19140625 6.046875 C3 6 3 6 0 4 C0 2.68 0 1.36 0 0 Z " fill="#694F9B" transform="translate(413,311)"/>
<path d="M0 0 C1.32 0 2.64 0 4 0 C3.67 0.99 3.34 1.98 3 3 C2.34 3 1.68 3 1 3 C1 3.66 1 4.32 1 5 C-2.465 6.485 -2.465 6.485 -6 8 C-6.66 7.34 -7.32 6.68 -8 6 C-7.05125 5.38125 -6.1025 4.7625 -5.125 4.125 C-2.05554891 2.18029031 -2.05554891 2.18029031 0 0 Z " fill="#8767B4" transform="translate(189,284)"/>
<path d="M0 0 C0.33 0.66 0.66 1.32 1 2 C1.99 2.33 2.98 2.66 4 3 C4.33 4.65 4.66 6.3 5 8 C5.33 8 5.66 8 6 8 C6 10.97 6 13.94 6 17 C4.0990238 14.1485357 3.03734101 11.70289524 1.875 8.5 C1.52179688 7.5409375 1.16859375 6.581875 0.8046875 5.59375 C0 3 0 3 0 0 Z " fill="#4D327E" transform="translate(441,234)"/>
<path d="M0 0 C1.36420006 4.09260018 -0.2335485 6.47012659 -1.9375 10.1875 C-2.22818359 10.84169922 -2.51886719 11.49589844 -2.81835938 12.16992188 C-3.53695343 13.78381344 -4.2673588 15.39243655 -5 17 C-5.33 17 -5.66 17 -6 17 C-6 15.02 -6 13.04 -6 11 C-5.67 11 -5.34 11 -5 11 C-4.731875 10.113125 -4.46375 9.22625 -4.1875 8.3125 C-3.08289181 5.23122452 -1.77150856 2.73778595 0 0 Z " fill="#4C3381" transform="translate(490,358)"/>
<path d="M0 0 C0.33 0 0.66 0 1 0 C1.44701413 7.56198897 1.53574091 12.76335625 -3 19 C-4.35949488 14.92151537 -3.14486103 11.82319055 -2.0625 7.8125 C-1.86720703 7.06291016 -1.67191406 6.31332031 -1.47070312 5.54101562 C-0.98785625 3.69206541 -0.49489367 1.84576224 0 0 Z " fill="#4A2F7D" transform="translate(449,323)"/>
<path d="M0 0 C1.98 0 3.96 0 6 0 C6 0.66 6 1.32 6 2 C6.969375 2.2475 7.93875 2.495 8.9375 2.75 C9.948125 3.1625 10.95875 3.575 12 4 C12.875 6.125 12.875 6.125 13 8 C8.27626146 6.37621488 4.05818166 3.89006982 0 1 C0 0.67 0 0.34 0 0 Z " fill="#71569A" transform="translate(376,160)"/>
<path d="M0 0 C0.33 0 0.66 0 1 0 C1.5 2.6875 1.5 2.6875 1 6 C-1.99711514 8.58655142 -5.47939593 10.23969796 -9 12 C-7.56006357 8.78727751 -5.76981628 6.3793336 -3.4375 3.75 C-2.81746094 3.04359375 -2.19742187 2.3371875 -1.55859375 1.609375 C-1.04425781 1.07828125 -0.52992188 0.5471875 0 0 Z " fill="#492F7E" transform="translate(443,410)"/>
<path d="M0 0 C2.31 0.33 4.62 0.66 7 1 C7 1.33 7 1.66 7 2 C5.35 2.33 3.7 2.66 2 3 C1.67 9.93 1.34 16.86 1 24 C0.67 24 0.34 24 0 24 C0 16.08 0 8.16 0 0 Z " fill="#7D61A2" transform="translate(189,248)"/>
<path d="M0 0 C3.375 0.3125 3.375 0.3125 7 1 C7.66 1.99 8.32 2.98 9 4 C4.545 4.495 4.545 4.495 0 5 C-0.66 4.01 -1.32 3.02 -2 2 C-1.34 2 -0.68 2 0 2 C0 1.34 0 0.68 0 0 Z " fill="#9D77CA" transform="translate(182,226)"/>
<path d="M0 0 C0.66 0 1.32 0 2 0 C2 0.99 2 1.98 2 3 C2.61875 3.20625 3.2375 3.4125 3.875 3.625 C6 5 6 5 7.375 7.9375 C7.684375 9.4534375 7.684375 9.4534375 8 11 C7.01 12.485 7.01 12.485 6 14 C4.99770632 11.85521084 3.99807145 9.70925278 3 7.5625 C2.1646875 5.77005859 2.1646875 5.77005859 1.3125 3.94140625 C0 1 0 1 0 0 Z " fill="#4D3281" transform="translate(434,220)"/>
<path d="M0 0 C3.96 0.33 7.92 0.66 12 1 C12.33 1.99 12.66 2.98 13 4 C15.97 4.495 15.97 4.495 19 5 C14.83326479 6.79341438 11.25336659 5.01173384 7.25 3.5625 C6.20392578 3.19801758 6.20392578 3.19801758 5.13671875 2.82617188 C3.42114902 2.22689752 1.71010285 1.61470115 0 1 C0 0.67 0 0.34 0 0 Z " fill="#68518F" transform="translate(238,457)"/>
<path d="M0 0 C1.32 0.66 2.64 1.32 4 2 C2.23628182 3.03307771 0.46374967 4.05112049 -1.3125 5.0625 C-2.79169922 5.91521484 -2.79169922 5.91521484 -4.30078125 6.78515625 C-7 8 -7 8 -10 7 C-9.67 6.34 -9.34 5.68 -9 5 C-7.35 5 -5.7 5 -4 5 C-3.67 4.01 -3.34 3.02 -3 2 C-2.34 1.67 -1.68 1.34 -1 1 C-0.67 0.67 -0.34 0.34 0 0 Z " fill="#4B3081" transform="translate(357,414)"/>
<path d="M0 0 C10.55808656 -0.18451025 10.55808656 -0.18451025 15 1 C14.67 1.66 14.34 2.32 14 3 C8.78020872 3.1799928 4.92737019 2.97094808 0 1 C0 0.67 0 0.34 0 0 Z " fill="#7D61A9" transform="translate(308,139)"/>
<path d="M0 0 C0.66 0 1.32 0 2 0 C2.05423638 1.91635217 2.09289963 3.83314925 2.125 5.75 C2.14820313 6.81734375 2.17140625 7.8846875 2.1953125 8.984375 C2.00487687 11.92470106 1.52670104 13.52361878 0 16 C-0.19441368 13.7089095 -0.38033135 11.41709663 -0.5625 9.125 C-0.71912109 7.21074219 -0.71912109 7.21074219 -0.87890625 5.2578125 C-1 2 -1 2 0 0 Z " fill="#513686" transform="translate(498,316)"/>
<path d="M0 0 C2.96404505 2.80804268 5.44499019 5.18315774 7 9 C5.125 8.6875 5.125 8.6875 3 8 C2.34 7.01 1.68 6.02 1 5 C0.01 4.67 -0.98 4.34 -2 4 C-1.34 2.68 -0.68 1.36 0 0 Z " fill="#7A5DA8" transform="translate(425,178)"/>
<path d="M0 0 C0.226875 0.598125 0.45375 1.19625 0.6875 1.8125 C1.8837149 4.22350467 1.8837149 4.22350467 4.625 5.4375 C5.40875 5.953125 6.1925 6.46875 7 7 C7.3125 9.6875 7.3125 9.6875 7 12 C5.33333333 10.33333333 3.66666667 8.66666667 2 7 C1.236875 6.278125 0.47375 5.55625 -0.3125 4.8125 C-2 3 -2 3 -2 1 C-1.34 0.67 -0.68 0.34 0 0 Z " fill="#6F5499" transform="translate(414,187)"/>
<path d="M0 0 C1.13215241 3.43718212 0.9101812 6.07716437 0.3125 9.625 C0.16425781 10.58664062 0.01601563 11.54828125 -0.13671875 12.5390625 C-1 15 -1 15 -3.08203125 16.3359375 C-3.71496094 16.55507813 -4.34789062 16.77421875 -5 17 C-1.92482916 5.47835991 -1.92482916 5.47835991 0 0 Z " fill="#462D78" transform="translate(408,327)"/>
<path d="M0 0 C0.33 0 0.66 0 1 0 C2.86783046 5.48675196 3.2358396 10.22192976 3 16 C0.49399686 13.49399686 0.02945209 11.81405575 -0.09765625 8.30078125 C-0.08605469 7.31464844 -0.07445312 6.32851563 -0.0625 5.3125 C-0.05347656 4.31863281 -0.04445312 3.32476562 -0.03515625 2.30078125 C-0.02355469 1.54152344 -0.01195312 0.78226563 0 0 Z " fill="#8D70B4" transform="translate(151,255)"/>
<path d="M0 0 C0 0.66 0 1.32 0 2 C-0.639375 2.28875 -1.27875 2.5775 -1.9375 2.875 C-4.15206079 3.82823451 -4.15206079 3.82823451 -5 6 C-6.32 6 -7.64 6 -9 6 C-9.33 6.99 -9.66 7.98 -10 9 C-11.32 8.67 -12.64 8.34 -14 8 C-12.04532248 6.66101601 -10.0866421 5.32870953 -8.125 4 C-7.03445312 3.2575 -5.94390625 2.515 -4.8203125 1.75 C-2 0 -2 0 0 0 Z " fill="#48307D" transform="translate(221,147)"/>
<path d="M0 0 C-0.1875 1.875 -0.1875 1.875 -1 4 C-3.89105597 5.68644932 -5.48102512 6.06919665 -8.8125 5.625 C-9.534375 5.41875 -10.25625 5.2125 -11 5 C-3.5 0 -3.5 0 0 0 Z " fill="#533789" transform="translate(237,139)"/>
<path d="M0 0 C0 0.99 0 1.98 0 3 C-1.28788008 3.53012738 -2.58046678 4.0488329 -3.875 4.5625 C-4.59429687 4.85253906 -5.31359375 5.14257812 -6.0546875 5.44140625 C-8 6 -8 6 -10 5 C-10.33 5.66 -10.66 6.32 -11 7 C-11.66 6.34 -12.32 5.68 -13 5 C-11.21046815 4.16209211 -9.41830305 3.32980604 -7.625 2.5 C-6.62726563 2.0359375 -5.62953125 1.571875 -4.6015625 1.09375 C-2 0 -2 0 0 0 Z " fill="#4E3580" transform="translate(365,436)"/>
<path d="M0 0 C4.48688582 1.06268348 6.93794652 3.67548479 10 7 C9.67 7.66 9.34 8.32 9 9 C7.68 8.67 6.36 8.34 5 8 C4.67 6.68 4.34 5.36 4 4 C1.69 3.34 -0.62 2.68 -3 2 C-2.01 1.34 -1.02 0.68 0 0 Z " fill="#654C8D" transform="translate(175,391)"/>
<path d="M0 0 C0 3.68553144 -0.8522582 5.03759752 -3 8 C-5.96240248 10.1477418 -7.31446856 11 -11 11 C-7.37 7.37 -3.74 3.74 0 0 Z " fill="#432B71" transform="translate(384,374)"/>
<path d="M0 0 C0.33 0 0.66 0 1 0 C0.67 2.31 0.34 4.62 0 7 C-1.98 7.66 -3.96 8.32 -6 9 C-2.25 2.25 -2.25 2.25 0 0 Z " fill="#523784" transform="translate(391,365)"/>
<path d="M0 0 C1.36447109 0.60036728 2.68747118 1.29325371 4 2 C4.60199219 2.30679687 5.20398438 2.61359375 5.82421875 2.9296875 C7.8919416 4.14599506 9.42694039 5.17993103 11 7 C11.595219 10.08478715 11.42552736 12.89972924 11 16 C10.67 16 10.34 16 10 16 C10 13.36 10 10.72 10 8 C9.46375 7.773125 8.9275 7.54625 8.375 7.3125 C5.19684374 5.55615049 2.71920931 3.41020825 0 1 C0 0.67 0 0.34 0 0 Z " fill="#AB94C3" transform="translate(170,291)"/>
<path d="M0 0 C0.33 0.66 0.66 1.32 1 2 C-0.21484375 4.6015625 -0.21484375 4.6015625 -1.9375 7.625 C-2.78634766 9.12933594 -2.78634766 9.12933594 -3.65234375 10.6640625 C-4.09707031 11.43492187 -4.54179687 12.20578125 -5 13 C-5.33 13 -5.66 13 -6 13 C-6 11.35 -6 9.7 -6 8 C-5.01 7.67 -4.02 7.34 -3 7 C-3.061875 6.21625 -3.12375 5.4325 -3.1875 4.625 C-3.125625 3.75875 -3.06375 2.8925 -3 2 C-2.01 1.34 -1.02 0.68 0 0 Z " fill="#7C60A3" transform="translate(211,268)"/>
<path d="M0 0 C1.27609323 0.90933009 2.54565553 1.82782853 3.8125 2.75 C4.87404297 3.51570312 4.87404297 3.51570312 5.95703125 4.296875 C8.02977691 6.02482358 9.47375854 7.78526476 11 10 C10.01 10.33 9.02 10.66 8 11 C8 10.01 8 9.02 8 8 C6.68 7.67 5.36 7.34 4 7 C4 6.34 4 5.68 4 5 C1.525 4.01 1.525 4.01 -1 3 C-0.67 2.01 -0.34 1.02 0 0 Z " fill="#6D5398" transform="translate(408,162)"/>
<path d="M0 0 C0.66 0.33 1.32 0.66 2 1 C2 1.99 2 2.98 2 4 C0.41913952 4.36504603 -1.16483907 4.71660506 -2.75 5.0625 C-3.63171875 5.25972656 -4.5134375 5.45695313 -5.421875 5.66015625 C-7.98679028 5.99825872 -9.57091639 5.81158635 -12 5 C-10.04578965 4.13644222 -8.08648653 3.28440066 -6.125 2.4375 C-5.03445312 1.96183594 -3.94390625 1.48617187 -2.8203125 0.99609375 C-1.88960937 0.66738281 -0.95890625 0.33867187 0 0 Z " fill="#775A9D" transform="translate(170,230)"/>
<path d="M0 0 C1.98 0 3.96 0 6 0 C3.22719294 3.08089673 0.93673644 4.68775452 -3 6 C-3 5.01 -3 4.02 -3 3 C-2.34 3 -1.68 3 -1 3 C-0.67 2.01 -0.34 1.02 0 0 Z " fill="#4D3483" transform="translate(407,459)"/>
<path d="M0 0 C0.99 0 1.98 0 3 0 C3 0.99 3 1.98 3 3 C5.31 3.33 7.62 3.66 10 4 C10 4.99 10 5.98 10 7 C9.34 7 8.68 7 8 7 C8 6.34 8 5.68 8 5 C7.2575 5.0825 6.515 5.165 5.75 5.25 C2.21842973 4.92894816 1.23369636 3.64734383 -1 1 C-0.67 0.67 -0.34 0.34 0 0 Z " fill="#8363AF" transform="translate(192,428)"/>
<path d="M0 0 C-0.61875 0.28875 -1.2375 0.5775 -1.875 0.875 C-4.13325765 1.93720042 -4.13325765 1.93720042 -6 4 C-6.64767793 6.57061311 -6.64767793 6.57061311 -7 9 C-7.66 8.67 -8.32 8.34 -9 8 C-9 5.69 -9 3.38 -9 1 C-5.92677456 0.08941469 -3.19902639 -0.08886184 0 0 Z " fill="#A27BCB" transform="translate(173,250)"/>
<path d="M0 0 C2.72869407 0.03287583 5.2966618 0.56397771 8 1 C7.67 1.66 7.34 2.32 7 3 C5.34080104 3.36871088 3.67225729 3.69595322 2 4 C0.3207762 4.63437344 -1.35008418 5.29289322 -3 6 C-2.42655063 3.13275314 -2.1385485 2.1385485 0 0 Z " fill="#8364AC" transform="translate(177,232)"/>
<path d="M0 0 C0 0.66 0 1.32 0 2 C-1.86328125 3.5078125 -1.86328125 3.5078125 -4.3125 5.125 C-5.11300781 5.66382813 -5.91351563 6.20265625 -6.73828125 6.7578125 C-9 8 -9 8 -12 8 C-10.57084149 6.65772954 -9.13137328 5.32642904 -7.6875 4 C-6.48673828 2.88625 -6.48673828 2.88625 -5.26171875 1.75 C-3 0 -3 0 0 0 Z " fill="#B1AEB8" transform="translate(186,131)"/>
<path d="M0 0 C5.36891879 0.49869404 10.69235173 1.02227532 16 2 C16 2.33 16 2.66 16 3 C11.71 3 7.42 3 3 3 C3 2.34 3 1.68 3 1 C2.01 0.67 1.02 0.34 0 0 Z " fill="#614A89" transform="translate(322,125)"/>
<path d="M0 0 C3.63 1.65 7.26 3.3 11 5 C11 5.33 11 5.66 11 6 C4.12205567 6.31263383 4.12205567 6.31263383 1 4 C0.67 2.68 0.34 1.36 0 0 Z " fill="#775DA1" transform="translate(230,435)"/>
<path d="M0 0 C0.33 1.32 0.66 2.64 1 4 C-3.75 8 -3.75 8 -6 8 C-4.55746343 4.63408134 -2.66735273 2.48952921 0 0 Z " fill="#F8F7FB" transform="translate(216,196)"/>
<path d="M0 0 C1.32 0 2.64 0 4 0 C3.75 2.375 3.75 2.375 3 5 C0.9375 6.3125 0.9375 6.3125 -1 7 C-1.04254356 5.00045254 -1.04080783 2.99958364 -1 1 C-0.67 0.67 -0.34 0.34 0 0 Z " fill="#906DD3" transform="translate(428,187)"/>
<path d="M0 0 C3.77727089 1.81309003 7.37269822 3.9073259 11 6 C8.92446352 6.5534764 7.15634036 7 5 7 C4.67 6.34 4.34 5.68 4 5 C3.34 5 2.68 5 2 5 C1.34 3.35 0.68 1.7 0 0 Z " fill="#6C5395" transform="translate(210,423)"/>
<path d="M0 0 C1.65 0.33 3.3 0.66 5 1 C2.53698577 3.46301423 0.72639964 3.76766521 -2.625 4.625 C-3.62789063 4.88539063 -4.63078125 5.14578125 -5.6640625 5.4140625 C-6.43492187 5.60742188 -7.20578125 5.80078125 -8 6 C-7.67 5.01 -7.34 4.02 -7 3 C-5.5459375 2.814375 -5.5459375 2.814375 -4.0625 2.625 C-2.5465625 2.315625 -2.5465625 2.315625 -1 2 C-0.67 1.34 -0.34 0.68 0 0 Z " fill="#462F79" transform="translate(342,421)"/>
<path d="M0 0 C0.33 0 0.66 0 1 0 C1.33 5.28 1.66 10.56 2 16 C1.01 16.33 0.02 16.66 -1 17 C-0.67 11.39 -0.34 5.78 0 0 Z " fill="#462D75" transform="translate(485,300)"/>
<path d="M0 0 C0.33 0 0.66 0 1 0 C1.24887295 2.10192697 1.4734719 4.20673964 1.6875 6.3125 C1.81511719 7.48425781 1.94273437 8.65601563 2.07421875 9.86328125 C2 13 2 13 -1 16 C-0.67 10.72 -0.34 5.44 0 0 Z " fill="#664D84" transform="translate(206,249)"/>
<path d="M0 0 C1.36125 0.12375 1.36125 0.12375 2.75 0.25 C2.75 0.91 2.75 1.57 2.75 2.25 C-3.875 5.375 -3.875 5.375 -7.25 4.25 C-4.83923194 1.28290085 -3.90322061 0.30024774 0 0 Z " fill="#513584" transform="translate(379.25,474.75)"/>
<path d="M0 0 C1 3 1 3 -0.21484375 5.69921875 C-0.78332031 6.68535156 -1.35179687 7.67148437 -1.9375 8.6875 C-2.50339844 9.68136719 -3.06929688 10.67523438 -3.65234375 11.69921875 C-4.31943359 12.83810547 -4.31943359 12.83810547 -5 14 C-5.66 12.68 -6.32 11.36 -7 10 C-6.01 10 -5.02 10 -4 10 C-3.71125 9.0925 -3.4225 8.185 -3.125 7.25 C-2.23468224 4.67797092 -1.28505587 2.38653234 0 0 Z " fill="#412875" transform="translate(415,355)"/>
<path d="M0 0 C1.67110042 2.96178773 2.32682752 5.37071192 2.625 8.75 C2.69976562 9.54921875 2.77453125 10.3484375 2.8515625 11.171875 C2.90054687 11.77515625 2.94953125 12.3784375 3 13 C2.01 12.34 1.02 11.68 0 11 C-0.29296875 8.3984375 -0.29296875 8.3984375 -0.1875 5.375 C-0.16042969 4.37210938 -0.13335937 3.36921875 -0.10546875 2.3359375 C-0.07066406 1.56507813 -0.03585937 0.79421875 0 0 Z " fill="#49317D" transform="translate(464,250)"/>
<path d="M0 0 C2.95183101 2.95183101 3.08663988 5.95511947 4 10 C2.68 9.67 1.36 9.34 0 9 C-1.125 3.375 -1.125 3.375 0 0 Z " fill="#4E3383" transform="translate(487,215)"/>
<path d="M0 0 C1.65 0 3.3 0 5 0 C1.80009492 2.74277578 -1.00499382 4.6302836 -5 6 C-4.67 4.68 -4.34 3.36 -4 2 C-2.68 2 -1.36 2 0 2 C0 1.34 0 0.68 0 0 Z " fill="#4A337F" transform="translate(227,160)"/>
<path d="M0 0 C0.66 0 1.32 0 2 0 C4.09230769 4.43076923 4.09230769 4.43076923 3.625 7.3125 C3.41875 7.869375 3.2125 8.42625 3 9 C2.34 8.67 1.68 8.34 1 8 C0.40644386 5.35139573 0.25790731 2.70802678 0 0 Z " fill="#533788" transform="translate(447,251)"/>
<path d="M0 0 C1.48280196 0.78483659 2.9611498 1.57809334 4.4375 2.375 C5.67306641 3.03628906 5.67306641 3.03628906 6.93359375 3.7109375 C9 5 9 5 10 7 C8.68 7 7.36 7 6 7 C5.34 6.34 4.68 5.68 4 5 C1.93125966 4.3574765 1.93125966 4.3574765 0 4 C0 2.68 0 1.36 0 0 Z " fill="#6E5599" transform="translate(390,149)"/>
<path d="M0 0 C0.33 0 0.66 0 1 0 C1.33 3.96 1.66 7.92 2 12 C0.68 12.33 -0.64 12.66 -2 13 C-2 12.01 -2 11.02 -2 10 C-1.34 10 -0.68 10 0 10 C0 6.7 0 3.4 0 0 Z " fill="#7E5DB5" transform="translate(337,451)"/>
<path d="M0 0 C0 0.66 0 1.32 0 2 C-4.455 3.485 -4.455 3.485 -9 5 C-4.5 0 -4.5 0 0 0 Z " fill="#4F3589" transform="translate(415,441)"/>
<path d="M0 0 C0.66 0.99 1.32 1.98 2 3 C0.75 4.5625 0.75 4.5625 -1 6 C-3.1875 5.6875 -3.1875 5.6875 -5 5 C-3.35 3.35 -1.7 1.7 0 0 Z " fill="#503388" transform="translate(433,422)"/>
<path d="M0 0 C0.33 0 0.66 0 1 0 C1.28571429 7.42857143 1.28571429 7.42857143 -1 11 C-1.33 11 -1.66 11 -2 11 C-1.85892253 9.54119891 -1.71197585 8.08296449 -1.5625 6.625 C-1.48128906 5.81289063 -1.40007812 5.00078125 -1.31640625 4.1640625 C-1 2 -1 2 0 0 Z " fill="#4E3484" transform="translate(471,363)"/>
<path d="M0 0 C0.33 0.66 0.66 1.32 1 2 C0.360625 2.598125 -0.27875 3.19625 -0.9375 3.8125 C-3.20310389 5.90810337 -3.20310389 5.90810337 -4 9 C-6.0625 9.6875 -6.0625 9.6875 -8 10 C-7.04367001 8.70684939 -6.08486149 7.41553147 -5.125 6.125 C-4.59132812 5.40570313 -4.05765625 4.68640625 -3.5078125 3.9453125 C-2 2 -2 2 0 0 Z " fill="#492F7C" transform="translate(183,176)"/>
<path d="M0 0 C2.97 0.33 5.94 0.66 9 1 C9.33 2.32 9.66 3.64 10 5 C6.08788267 3.84414715 3.1254959 2.64465038 0 0 Z " fill="#674F8E" transform="translate(366,155)"/>
<path d="M0 0 C-3.1254959 2.64465038 -6.08788267 3.84414715 -10 5 C-10.33 4.34 -10.66 3.68 -11 3 C-9.68 3 -8.36 3 -7 3 C-7 2.34 -7 1.68 -7 1 C-4.53721199 -0.231394 -2.7204945 -0.07159196 0 0 Z " fill="#4F3486" transform="translate(404,465)"/>
<path d="M0 0 C0.66 0 1.32 0 2 0 C2.33 0.99 2.66 1.98 3 3 C-2.17578125 6.22265625 -2.17578125 6.22265625 -4 7 C-4.99 6.67 -5.98 6.34 -7 6 C-6.360625 5.71125 -5.72125 5.4225 -5.0625 5.125 C-2.84793921 4.17176549 -2.84793921 4.17176549 -2 2 C-1.34 2 -0.68 2 0 2 C0 1.34 0 0.68 0 0 Z " fill="#493081" transform="translate(375,446)"/>
<path d="M0 0 C3.8063457 0.67170806 7.35206816 1.72746564 11 3 C11 3.33 11 3.66 11 4 C8.36 4 5.72 4 3 4 C2.67 3.01 2.34 2.02 2 1 C1.34 0.67 0.68 0.34 0 0 Z " fill="#705799" transform="translate(247,443)"/>
<path d="M0 0 C0.66 0.33 1.32 0.66 2 1 C0.875 3.4375 0.875 3.4375 -1 6 C-4.1875 6.8125 -4.1875 6.8125 -7 7 C-4.66666667 4.66666667 -2.33333333 2.33333333 0 0 Z " fill="#472F78" transform="translate(419,434)"/>
<path d="M0 0 C0.66 0.33 1.32 0.66 2 1 C0 4 0 4 -1.9453125 4.51171875 C-2.66460937 4.56972656 -3.38390625 4.62773437 -4.125 4.6875 C-6.043125 4.8421875 -6.043125 4.8421875 -8 5 C-5.45378681 2.99940392 -3.01962385 1.20784954 0 0 Z " fill="#4E3384" transform="translate(373,431)"/>
<path d="M0 0 C1.98 1.65 3.96 3.3 6 5 C3 6 3 6 1 6 C1 5.34 1 4.68 1 4 C0.34 4 -0.32 4 -1 4 C-0.67 2.68 -0.34 1.36 0 0 Z " fill="#72599C" transform="translate(191,406)"/>
<path d="M0 0 C0.66 0.33 1.32 0.66 2 1 C0.515 3.475 0.515 3.475 -1 6 C-2.65 5.67 -4.3 5.34 -6 5 C-4.06745228 2.9754262 -2.36841312 1.57894208 0 0 Z " fill="#4B3084" transform="translate(357,397)"/>
<path d="M0 0 C0.66 0 1.32 0 2 0 C1.43628586 3.26954202 0.50037734 4.82575883 -2 7 C-2.66 6.67 -3.32 6.34 -4 6 C-1.125 1.125 -1.125 1.125 0 0 Z " fill="#53388D" transform="translate(372,386)"/>
<path d="M0 0 C0.25 2.3125 0.25 2.3125 0 5 C-2 6.8125 -2 6.8125 -4 8 C-3.74438677 5.6568787 -3.40729228 3.32156597 -3 1 C-1 0 -1 0 0 0 Z " fill="#543791" transform="translate(405,343)"/>
<path d="M0 0 C2.475 0.495 2.475 0.495 5 1 C5 2.32 5 3.64 5 5 C2.525 4.01 2.525 4.01 0 3 C0 2.01 0 1.02 0 0 Z " fill="#9A74CC" transform="translate(190,287)"/>
<path d="M0 0 C0.99 0.495 0.99 0.495 2 1 C2 1.66 2 2.32 2 3 C2.639375 3.103125 3.27875 3.20625 3.9375 3.3125 C4.618125 3.539375 5.29875 3.76625 6 4 C6.33 4.99 6.66 5.98 7 7 C3.76509224 6.44225728 2.02144994 5.62788492 0 3 C0 2.01 0 1.02 0 0 Z " fill="#A080C3" transform="translate(163,283)"/>
<path d="M0 0 C1.0326802 2.78823655 1.04509293 3.8677274 0.0625 6.75 C-0.288125 7.4925 -0.63875 8.235 -1 9 C-1.99 9 -2.98 9 -4 9 C-2.80100302 5.9168649 -1.52299523 2.93720508 0 0 Z " fill="#745B9C" transform="translate(204,265)"/>
<path d="M0 0 C5.875 3.75 5.875 3.75 7 6 C4.64828869 5.40138258 2.3140622 4.73075648 0 4 C-0.33 3.34 -0.66 2.68 -1 2 C-0.67 1.34 -0.34 0.68 0 0 Z " fill="#705596" transform="translate(199,414)"/>
<path d="M0 0 C2.0625 0.4375 2.0625 0.4375 4 1 C2.69593116 3.01920337 1.36176581 5.01924973 0 7 C-0.33 7 -0.66 7 -1 7 C-1.04254356 5.00045254 -1.04080783 2.99958364 -1 1 C-0.67 0.67 -0.34 0.34 0 0 Z " fill="#4D3384" transform="translate(404,371)"/>
<path d="M0 0 C0.99 0 1.98 0 3 0 C3.268125 0.7425 3.53625 1.485 3.8125 2.25 C4.94229421 4.86636554 6.20893202 6.80187111 8 9 C4.20620942 7.50958227 2.31656242 5.30937488 0 2 C0 1.34 0 0.68 0 0 Z " fill="#614686" transform="translate(165,267)"/>
<path d="M0 0 C2 4 2 4 2 8 C0.35 8.33 -1.3 8.66 -3 9 C-2.01 6.03 -1.02 3.06 0 0 Z " fill="#6E5A95" transform="translate(485,210)"/>
<path d="M0 0 C3 1 3 1 4.75 3.9375 C5.1625 4.948125 5.575 5.95875 6 7 C5.67 7.66 5.34 8.32 5 9 C1.96130589 7.48065294 1.35589694 5.01995228 0 2 C0 1.34 0 0.68 0 0 Z " fill="#54388B" transform="translate(446,210)"/>
<path d="M0 0 C3.91211733 1.15585285 6.8745041 2.35534962 10 5 C9.01 5.33 8.02 5.66 7 6 C7 5.34 7 4.68 7 4 C4.03 3.505 4.03 3.505 1 3 C0.67 2.01 0.34 1.02 0 0 Z " fill="#6D5496" transform="translate(371,139)"/>
<path d="M0 0 C3.9492568 0.55105909 7.34920174 1.38935371 11 3 C11 3.33 11 3.66 11 4 C6.78121808 4.19622241 3.82989106 3.80230168 0 2 C0 1.34 0 0.68 0 0 Z " fill="#684E8E" transform="translate(353,132)"/>
<path d="M0 0 C0.66 0.33 1.32 0.66 2 1 C1.67 1.66 1.34 2.32 1 3 C0.34 3 -0.32 3 -1 3 C-1 3.66 -1 4.32 -1 5 C-2.65 5 -4.3 5 -6 5 C-2.25 1.125 -2.25 1.125 0 0 Z " fill="#4B317E" transform="translate(404,446)"/>
<path d="M0 0 C1.04973814 4.19895255 0.72795155 6.79405774 0 11 C-0.99 11 -1.98 11 -3 11 C-2.01 7.37 -1.02 3.74 0 0 Z " fill="#452D77" transform="translate(477,346)"/>
<path d="M0 0 C2.64 1.98 5.28 3.96 8 6 C7.01 6.33 6.02 6.66 5 7 C5 6.34 5 5.68 5 5 C3.68 4.67 2.36 4.34 1 4 C0.67 2.68 0.34 1.36 0 0 Z " fill="#EFE4F6" transform="translate(165,288)"/>
<path d="M0 0 C-0.33 1.98 -0.66 3.96 -1 6 C-1.66 6 -2.32 6 -3 6 C-3.66 4.35 -4.32 2.7 -5 1 C-3 0 -3 0 0 0 Z " fill="#573A92" transform="translate(426,198)"/>
<path d="M0 0 C3.0916909 2.52956528 3.90931332 5.22454612 5 9 C3.0625 8.4375 3.0625 8.4375 1 7 C0.25 3.375 0.25 3.375 0 0 Z " fill="#A6A2AC" transform="translate(474,189)"/>
<path d="M0 0 C2.97 0.33 5.94 0.66 9 1 C5.00889681 2.9955516 3.30013434 3.19546065 -1 3 C-0.67 2.01 -0.34 1.02 0 0 Z " fill="#483272" transform="translate(324,426)"/>
<path d="M0 0 C-0.33 1.65 -0.66 3.3 -1 5 C-3.01920337 3.69593116 -5.01924973 2.36176581 -7 1 C-7 0.67 -7 0.34 -7 0 C-2.25 -1.125 -2.25 -1.125 0 0 Z " fill="#6C5498" transform="translate(325,414)"/>
<path d="M0 0 C0.66 0 1.32 0 2 0 C1.25 4.75 1.25 4.75 -1 7 C-1 6.34 -1 5.68 -1 5 C-1.66 4.67 -2.32 4.34 -3 4 C-1.625 2 -1.625 2 0 0 Z " fill="#54388D" transform="translate(459,411)"/>
<path d="M0 0 C1.98 1.65 3.96 3.3 6 5 C3.92446352 5.5534764 2.15634036 6 0 6 C0 4.02 0 2.04 0 0 Z " fill="#725A9E" transform="translate(185,400)"/>
<path d="M0 0 C1.31223496 3.93670488 0.24296256 6.12488144 -1 10 C-1.33 10 -1.66 10 -2 10 C-2.1953125 3.9453125 -2.1953125 3.9453125 -2 2 C-1.34 1.34 -0.68 0.68 0 0 Z " fill="#472D7C" transform="translate(464,335)"/>
<path d="M0 0 C2.97 1.98 2.97 1.98 6 4 C4.02 4.99 4.02 4.99 2 6 C1.34 4.02 0.68 2.04 0 0 Z " fill="#8665B0" transform="translate(175,285)"/>
<path d="M0 0 C0.66 0.33 1.32 0.66 2 1 C0.35 2.32 -1.3 3.64 -3 5 C-4.32 4.34 -5.64 3.68 -7 3 C-4.69631264 1.93347808 -2.35981813 0.93578995 0 0 Z " fill="#B7B4BD" transform="translate(257,169)"/>
<path d="M0 0 C0.66 0 1.32 0 2 0 C2 0.99 2 1.98 2 3 C-0.5 5.1875 -0.5 5.1875 -3 7 C-3.66 6.67 -4.32 6.34 -5 6 C-3.38405168 3.95880212 -1.7143618 1.95927063 0 0 Z " fill="#513585" transform="translate(205,156)"/>
</svg>
